<?xml version="1.0" encoding="UTF-8" standalone="no"?>
<svg
   xmlns:dc="http://purl.org/dc/elements/1.1/"
   xmlns:cc="http://creativecommons.org/ns#"
   xmlns:rdf="http://www.w3.org/1999/02/22-rdf-syntax-ns#"
   xmlns:svg="http://www.w3.org/2000/svg"
   xmlns="http://www.w3.org/2000/svg"
   xmlns:sodipodi="http://sodipodi.sourceforge.net/DTD/sodipodi-0.dtd"
   xmlns:inkscape="http://www.inkscape.org/namespaces/inkscape"
   width="114px"
   height="98px"
   viewBox="0 0 114 98"
   version="1.1"
   id="svg3336"
   inkscape:version="0.91 r13725"
   sodipodi:docname="global_shapers_logo_white.svg">
  <metadata
     id="metadata3424">
    <rdf:RDF>
      <cc:Work
         rdf:about="">
        <dc:format>image/svg+xml</dc:format>
        <dc:type
           rdf:resource="http://purl.org/dc/dcmitype/StillImage" />
        <dc:title>Untitled</dc:title>
      </cc:Work>
    </rdf:RDF>
  </metadata>
  <sodipodi:namedview
     pagecolor="#ffffff"
     bordercolor="#666666"
     borderopacity="1"
     objecttolerance="10"
     gridtolerance="10"
     guidetolerance="10"
     inkscape:pageopacity="0"
     inkscape:pageshadow="2"
     inkscape:window-width="1366"
     inkscape:window-height="715"
     id="namedview3422"
     showgrid="false"
     inkscape:zoom="11.142857"
     inkscape:cx="89.824171"
     inkscape:cy="53.358696"
     inkscape:window-x="-8"
     inkscape:window-y="-8"
     inkscape:window-maximized="1"
     inkscape:current-layer="svg3336" />
  <!-- Generator: Sketch 45.2 (43514) - http://www.bohemiancoding.com/sketch -->
  <title
     id="title3338">Untitled</title>
  <desc
     id="desc3340">Created with Sketch.</desc>
  <defs
     id="defs3342" />
  <g
     id="Page-1"
     stroke="none"
     stroke-width="1"
     fill="none"
     fill-rule="evenodd">
    <g
       id="global-shapers-logo"
       transform="translate(0.109835, 1.546875)"
       fill-rule="nonzero">
      <g
         id="Group"
         fill="#184897">
        <path
           d="M7.18812102,50.466085 C9.31617878,50.466085 11.4449043,50.4744316 13.5736297,50.4567367 C13.9839503,50.4540658 14.1598973,50.5398692 14.2012966,50.9879165 C14.2657326,51.6336121 14.4757339,52.2679563 14.5268153,52.9136519 C14.5652098,53.4868987 14.815275,53.5266287 15.2970427,53.466199 C17.4892026,53.2037809 19.6893753,52.9931118 21.8825367,52.7203438 C22.4527788,52.6502321 22.5559432,52.8475465 22.5432563,53.3486784 C22.5245598,54.0501295 22.3275793,54.7188618 22.2437791,55.4066244 C22.1816801,55.9004113 22.3900121,56.0075821 22.8113502,55.9114289 C22.9936406,55.8686941 23.1715909,55.811937 23.3558845,55.762191 C24.1304522,55.5518559 24.3401196,55.6910777 24.4900251,56.4669808 C24.5684835,56.8736288 24.4636498,57.1140119 24.046652,57.2969701 C20.4025116,58.8688081 16.7847467,60.5050822 13.2093826,62.228829 C10.2783787,63.6407456 7.36573739,65.0960647 4.4517606,66.5530531 C4.09318921,66.7306694 3.94829165,66.7062973 3.78770242,66.3106668 C1.80821475,61.440573 0.582595039,56.39954 0.240049188,51.1475042 C0.205327191,50.6373579 0.262752032,50.4320307 0.869385376,50.4477224 C2.97540801,50.4927942 5.08209838,50.466085 7.18812102,50.466085"
           id="Shape" />
        <path
           d="M42.3444764,0.394962711 C42.7137315,0.321512334 42.9841624,0.455058474 43.0412534,1.14081791 C43.2218746,3.27789002 43.4799525,5.41028803 43.7493818,7.53667645 C43.8104792,8.03213263 43.6064875,8.14765004 43.2055152,8.22043269 C42.1742051,8.40372477 41.1155181,8.43777903 40.0955594,8.71588887 C39.4962711,8.88015063 39.1724217,9.16593937 39.3323432,9.8256573 C39.4652216,10.3701917 39.2128194,10.6175859 38.6876492,10.7444547 C37.8720162,10.9384305 37.059054,11.1714685 36.2697964,11.4469075 C35.8297618,11.5981485 35.5746887,11.5527428 35.4140995,11.0866667 C35.0905839,10.1555163 34.7290078,9.23905588 34.4138389,8.30523449 C34.2766202,7.90125741 34.0799735,7.75135187 33.6816721,7.96769662 C33.647284,7.98438989 33.600209,7.98272056 33.5598113,7.99640904 C32.2437141,8.42475829 32.2153355,8.47851061 32.7294882,9.76956792 C33.5341037,11.7994693 34.3186872,13.8387188 35.1560215,15.8535962 C35.3837177,16.3974629 35.2278026,16.6802468 34.7670684,16.9052721 C34.6174967,16.9790563 34.4622493,17.0464971 34.3033294,17.1022526 C33.7624676,17.2902188 33.5985397,17.6237503 33.825902,18.1722911 C34.0592739,18.742867 33.9153779,19.1458425 33.3134187,19.4379746 C32.4850987,19.8392808 31.6894976,20.319713 30.8918933,20.7874584 C30.6351508,20.9370301 30.493258,20.9573959 30.3106337,20.6689362 C27.6400447,16.4852695 24.9661171,12.3072785 22.2701544,8.14097274 C22.0144136,7.74300524 22.2654803,7.62381531 22.4955135,7.45220852 C24.0570018,6.28768617 25.7854227,5.42631356 27.5582477,4.64807343 C31.7445854,2.81047853 36.0414325,1.31843427 40.5683128,0.576585462 C41.0874734,0.489780471 41.6163161,0.468079223 42.3444764,0.394962711"
           id="path3348" />
        <path
           d="M48.3330192,89.2635759 C48.3330192,86.4921596 48.3423675,84.4278702 48.323671,82.3649161 C48.3176614,81.8798098 48.492273,81.6531152 48.9813858,81.7041966 C49.6143945,81.7682988 49.7673048,81.4514605 49.7332505,80.8688655 C49.6517874,79.5344057 49.6147283,79.6756307 50.8246564,79.5020208 C51.2606845,79.4405895 51.7114027,79.4445959 52.1390843,79.3447702 C52.7667511,79.1951985 53.0355127,79.4649617 53.1259902,80.0382085 C53.1503624,80.2048073 53.1897585,80.3687352 53.2194725,80.535334 C53.3553557,81.2938761 53.436485,81.3790118 54.1643115,81.1643363 C54.6377325,81.0227774 54.8090055,81.1643363 54.8867961,81.6083773 C54.9338711,81.8978385 55.087783,82.1759484 55.1001361,82.4627387 C55.1301839,83.2019166 55.6076114,83.3374659 56.2032272,83.3438094 C56.7901625,83.3511544 57.3804364,83.3685154 57.9707104,83.357164 C58.442796,83.3504867 58.695532,83.5558139 58.8327507,84.0112062 C59.0781417,84.8108137 59.1459164,84.8285086 59.9598801,84.5911303 C60.6242722,84.3914788 61.2910013,84.1991724 61.9530563,83.9945129 C62.2234872,83.910045 62.3804039,83.9083757 62.5136162,84.2469151 C63.5055302,86.7672647 64.5164744,89.2826062 65.5484522,91.784927 C65.7193913,92.1945798 65.5080545,92.308094 65.2399607,92.4579996 C63.8360569,93.247925 62.2932651,93.6796129 60.7504733,94.0805852 C57.3253486,94.9740089 53.8611617,95.6684488 50.3135085,95.7829646 C48.311318,95.8460652 48.6675523,96.0310266 48.551701,94.2318262 C48.432845,92.3431499 48.3827652,90.4491318 48.3330192,89.2635759"
           id="path3350" />
        <path
           d="M57.0499097,0.968877251 C59.5245197,1.43662261 61.9136602,2.08766004 64.2510515,2.93033619 C67.8067175,4.21538393 71.1480419,5.92310521 74.3114161,7.98939787 C74.6452815,8.20440715 74.7013709,8.35731748 74.4589846,8.69919561 C73.1822835,10.552816 71.9206063,12.4177879 70.6802966,14.2977837 C70.4632841,14.6182944 70.2759856,14.6256395 69.965157,14.4894224 C69.050032,14.0981322 68.271458,13.4731363 67.396397,13.0127359 C66.5841026,12.5863899 66.5841026,12.5830512 66.1567549,13.384662 C65.5153996,14.5919191 64.8687024,15.7951698 64.2417033,17.0084365 C64.0974734,17.2955607 63.9766142,17.3486453 63.674466,17.2007429 C61.7066636,16.2402123 59.6944572,15.3898573 57.5914393,14.7715386 C57.3483853,14.7020946 57.2368743,14.5745581 57.3149988,14.316814 C57.3266841,14.2764163 57.3330275,14.2340154 57.3450467,14.1946193 C57.835161,12.4247991 57.8164646,12.7620031 56.1080756,12.2842418 C56.0065805,12.2571987 55.9020806,12.2518568 55.7962453,12.2301556 C54.7459049,12.0174833 54.7405631,12.0154801 54.9094989,10.9194002 C55.4012826,7.71596214 56.0907146,4.55225407 56.7080316,1.37485752 C56.7384133,1.20458619 56.6736435,0.841674552 57.0499097,0.968877251"
           id="path3352" />
        <path
           d="M77.1402573,85.8321078 C77.0280785,85.9189128 76.9282528,85.9967034 76.8317657,86.0724909 C74.1080921,88.2212483 71.1737496,90.012102 67.9726486,91.3639228 C67.5720101,91.5358635 67.4147596,91.4480569 67.2338045,91.0500894 C64.4667285,84.8532146 61.6852963,78.6623494 58.884166,72.4825017 C58.7092205,72.0982227 58.8143881,71.8952326 59.0941673,71.7049293 C59.5125005,71.4248163 59.6266825,71.1189956 59.3085088,70.6636033 C59.0534357,70.3107076 59.1589371,70.0162384 59.5662529,69.7972227 C60.1615348,69.4837231 60.7471346,69.1475207 61.3086961,68.7742593 C61.6448985,68.554242 61.8245181,68.6099975 62.0615625,68.9191568 C62.6064308,69.6219434 62.6271304,69.617937 63.3759904,69.1124649 C63.8410648,68.8016362 64.1462178,68.8316841 64.5204808,69.3234678 C68.5919688,74.6693198 72.6848241,79.994806 76.7746747,85.3256341 C76.8898582,85.4748719 76.9953597,85.6321225 77.1402573,85.8321078"
           id="path3354" />
        <path
           d="M5.59625103,48.8204627 C3.89320387,48.8204627 2.18381327,48.8177917 0.47976451,48.8241352 C0.181956617,48.8241352 -0.0203657865,48.8421639 0.00166932676,48.4094744 C0.248061956,43.1814769 0.813295997,38.0058962 2.52435592,33.0189494 C2.71833169,32.4533815 2.90128991,32.350551 3.48421881,32.558883 C6.58916658,33.6653127 9.71013989,34.7290078 12.836455,35.7780127 C13.2724832,35.9265828 13.3866651,36.1035314 13.2497803,36.5395596 C12.957982,37.4596925 12.7129249,38.3965186 12.4291393,39.3213257 C12.2498536,39.9015836 12.3496794,40.3032237 13.0254228,40.4010462 C13.5959987,40.485848 13.7949825,40.7228924 13.6764603,41.3649155 C13.4040261,42.8526195 13.2177293,44.3593538 13.0454548,45.8617479 C12.9860267,46.3622121 12.660508,46.3622121 12.3366586,46.3879197 C11.440564,46.4570298 11.4078452,46.481402 11.4388947,47.3828385 C11.440564,47.4042058 11.4418995,47.4242378 11.4418995,47.4429342 C11.4772892,48.5263273 11.4772892,48.5683943 10.3955655,48.5951035 C8.79701815,48.6371706 7.19646766,48.6071227 5.59925581,48.6071227 C5.59625103,48.6772344 5.59625103,48.7483477 5.59625103,48.8204627"
           id="path3356" />
        <path
           d="M46.863344,84.2732905 C46.7581764,87.8519932 46.7581764,91.4306959 46.7862211,95.0100663 C46.7925645,95.5158723 46.6169513,95.6567635 46.1699056,95.6891485 C44.8574809,95.7886403 43.5624172,95.6350623 42.2676874,95.4841551 C40.2214267,95.2451075 38.1908576,94.9102406 36.2060281,94.3156264 C35.6184251,94.13801 35.3596794,93.8886126 35.5376296,93.2065257 C36.2193827,90.5643153 36.9248402,87.9277806 37.7918885,85.3396564 C37.9558164,84.8408616 38.1791723,84.7687467 38.6462499,84.8896059 C40.1259412,85.2845686 40.1526504,85.2758881 40.4898544,83.7841778 C40.8824801,82.0444054 41.2256936,80.2906107 41.6063001,78.5428256 C41.7675571,77.8139975 41.9211352,77.6884642 42.6459568,77.9271779 C43.2929879,78.1405178 43.5026553,77.9315181 43.5821153,77.3202107 C43.751385,75.9884218 43.9824198,74.6596377 44.1299883,73.322507 C44.1954259,72.7485924 44.4675262,72.5696406 44.9866868,72.620722 C45.0080542,72.620722 45.0260829,72.620722 45.0477842,72.620722 C47.0256025,72.7589422 47.0256025,72.7589422 47.0256025,74.7437718 L47.0256025,84.2759614 C46.9705147,84.2762953 46.9184317,84.2732905 46.863344,84.2732905"
           id="path3358" />
        <path
           d="M26.535952,34.5433786 C26.3927238,34.8298351 26.2698613,35.097929 26.1289702,35.3563408 C25.6712408,36.1846607 25.2248628,37.0303416 24.9584382,37.934449 C24.7728091,38.5594449 24.5611385,38.6348985 23.9658565,38.4092055 C18.115534,36.1916719 12.2498536,34.0061893 6.38851351,31.8110246 C5.50610738,31.4804979 4.62103033,31.1422923 3.72994371,30.8287927 C3.39340744,30.7106044 3.33364554,30.5757228 3.48221562,30.2358479 C4.58296968,27.7325254 5.73380355,25.2605864 7.18745329,22.9352142 C7.42516542,22.55394 7.57073072,22.5339081 7.94065353,22.7659445 C13.9922969,26.5720095 20.0602997,30.3617151 26.1152817,34.1577641 C26.2721984,34.2565883 26.5322795,34.2926457 26.535952,34.5433786"
           id="path3360" />
        <path
           d="M19.6412986,69.5918955 C18.4954728,70.4572745 18.3645975,71.5086165 18.6824374,72.7095302 C19.1521859,74.4820213 19.3995801,76.2641946 18.6927872,78.0370196 C18.5856164,78.3091198 18.7605618,78.3695495 18.8974466,78.4767203 C19.377545,78.8553236 19.8506322,79.2416058 20.3440852,79.6015126 C20.6575848,79.8248685 20.7343738,79.9781127 20.4368998,80.314649 C19.3638565,81.529585 18.3161871,82.7655546 17.2892172,84.0202206 C17.0204556,84.3487441 16.8742226,84.3357233 16.563394,84.0743067 C12.5286312,80.6091183 9.22803832,76.5436399 6.58015222,71.9429753 C5.9925492,70.9260215 5.4760595,69.8636619 4.89880631,68.8406985 C4.70583213,68.4988204 4.77160361,68.3572614 5.09912552,68.1702968 C6.46062842,67.4157612 7.91093951,66.8485239 9.29781618,66.1510792 C9.62967834,65.985482 9.82131705,66.1497437 9.88208055,66.3924638 C10.1621936,67.4828681 10.8793364,67.5566523 11.8548909,67.4611668 C12.9686657,67.3499897 13.9922969,67.8220753 14.9548307,68.3749563 C15.5901765,68.7438775 16.2201804,69.1278227 16.8134591,69.5621815 C17.2344633,69.8670006 17.6411113,69.918082 18.1138647,69.7588282 C18.5672538,69.605584 19.0283219,69.4603526 19.6412986,69.5918955"
           id="path3362" />
        <path
           d="M30.7286331,77.1272365 C30.6458345,77.2691293 30.5633698,77.4180332 30.4802373,77.5615953 C29.2372566,79.6629438 28.016311,81.7743083 26.7406115,83.8526201 C26.4357924,84.3500795 26.5639967,84.5847869 26.9813284,84.8532146 C27.8797601,85.4418192 28.0647215,85.3980829 28.5297959,84.4362168 C28.5828805,84.3186962 28.62862,84.2011756 28.6887158,84.0923355 C29.1027088,83.3167663 29.2606272,83.265351 30.0238434,83.6696619 C31.7696253,84.6011463 33.6302569,85.263869 35.4741952,85.9696603 C35.8734982,86.1225707 35.9616386,86.2597893 35.8204136,86.6881386 C35.1086127,88.8415701 34.5136646,91.0283882 33.7234053,93.1564459 C33.6219102,93.4372267 33.5437858,93.6095012 33.1641809,93.4672745 C28.7484777,91.7922721 24.4806769,89.8368227 20.5397303,87.2093024 C19.8733351,86.7672647 19.2470037,86.2694714 18.6744246,85.7079099 C18.4286997,85.4655237 18.4143435,85.2909121 18.631356,85.0194796 C21.3213091,81.6173916 24.0062543,78.2102957 26.6778448,74.7938516 C26.9165585,74.4913696 27.0601206,74.4713376 27.3749557,74.696029 C28.3621955,75.4125041 29.3848251,76.0842411 30.3870889,76.7820197 C30.5146254,76.8724972 30.6955804,76.9242464 30.7286331,77.1272365"
           id="path3364" />
        <path
           d="M20.5343885,8.73458533 C20.6993179,8.75528498 20.7524025,8.88181995 20.8221804,8.98331502 C22.7853087,11.7954629 24.7414258,14.6132864 26.7132345,17.4200925 C26.8945234,17.676501 26.826081,17.8213986 26.6534726,18.0167098 C25.7413525,19.0339976 24.8235566,20.0492821 23.9331377,21.0882711 C23.6974288,21.3643777 23.5348364,21.2879226 23.3061386,21.1273333 C22.9198564,20.8585717 22.6534318,20.4732911 22.3502821,20.1237341 C22.0534758,19.7788512 21.7947302,19.7457985 21.398432,20.0302518 C19.8389469,21.15037 18.390639,22.4037006 16.9957496,23.7164591 C16.610469,24.078703 16.3363655,24.0600066 15.9761248,23.7735501 C15.645932,23.513469 15.3050555,23.2644054 14.9681853,23.0116694 C14.7020946,22.8100147 14.4787387,22.7986633 14.1992934,23.0467252 C13.7819617,23.4136433 13.4137082,24.0566679 12.8975524,24.0286232 C12.4261345,24.0029156 11.9784211,23.4894307 11.5243642,23.1859471 C10.6165843,22.5756412 9.71882039,21.9519807 8.80002294,21.3566988 C8.48084767,21.1456959 8.39103789,21.0007984 8.64644488,20.6398899 C11.842204,16.1073339 15.6375853,12.1727307 20.1821605,8.97797317 C20.3016843,8.89150205 20.4262161,8.8100389 20.5343885,8.73458533"
           id="path3366" />
        <path
           d="M48.4712395,0.00233705746 C50.535529,0.0287124203 52.5791188,0.330526698 54.6273827,0.557555137 C54.9996426,0.599288306 55.0570674,0.770227366 55.0056522,1.09574608 C54.4404181,4.86274885 53.8768534,8.63041934 53.3276449,12.3994253 C53.2698862,12.7897139 53.104289,12.9172505 52.727355,12.9419565 C52.0783208,12.9850251 51.4302881,13.077172 50.7829232,13.1576335 C50.3939701,13.2043747 50.1756221,13.411705 50.0757964,13.8240288 C49.7753176,15.0312859 49.5209122,16.2448864 49.3469683,17.4725093 C49.2855371,17.8931797 49.1005757,18.0904941 48.7323222,18.2467431 C47.9534143,18.5772698 47.1257621,18.7285108 46.3204789,18.9735679 C46.0156598,19.0660486 45.930858,18.9782421 45.9094907,18.6630732 C45.7565803,16.1423898 45.5859751,13.6243773 45.4173731,11.1023584 C45.1933495,7.69993661 44.9780063,4.29651321 44.7436328,0.896762335 C44.7105802,0.473421069 44.7543165,0.271098666 45.2574516,0.213006094 C46.3241514,0.0928145678 47.3948576,-0.0176948636 48.4712395,0.00233705746"
           id="path3368" />
        <path
           d="M80.4575434,27.8009678 C80.2411986,27.7819375 80.170753,27.5779458 80.0695918,27.4373885 C79.7287153,26.9572901 79.39485,26.5603242 78.7731927,27.0838251 C78.5648607,27.2540964 78.3321566,27.1813137 78.1722351,26.9572901 C77.5686065,26.1429925 76.9709875,25.3290288 76.3550059,24.5277519 C76.1593608,24.2703417 76.2605221,24.0843787 76.4481544,23.9331377 C76.9890162,23.5051224 76.8985387,23.0700958 76.4381384,22.6874861 C75.908628,22.2451145 75.9961007,21.8725208 76.4534962,21.4585278 C77.1646294,20.8074903 77.8557307,20.1270727 78.5862281,19.4923947 C78.9488059,19.1798967 78.9177564,18.9678922 78.6069277,18.6333591 C77.012053,16.9169574 75.2475746,15.3865186 73.394288,13.9645861 C73.0383875,13.6934874 72.9562567,13.5369046 73.2554,13.1469498 C74.1404771,11.9974514 74.9884951,10.8159019 75.821823,9.62700742 C76.0508546,9.30349189 76.196086,9.2938098 76.5109211,9.52751554 C81.2334465,13.0524659 85.1750608,17.3009025 88.3240788,22.288517 C88.4639684,22.509202 88.690663,22.6888216 88.2906923,22.9325433 C85.7486415,24.4983718 83.2196114,26.0852338 80.6895798,27.6660862 C80.617131,27.7114919 80.5416775,27.7512219 80.4575434,27.8009678"
           id="path3370" />
        <path
           d="M77.1789856,72.5138851 C77.5565873,72.6711357 77.8373681,72.8964948 78.1041265,73.1328714 C79.3280769,74.1982358 79.3344203,74.2069163 80.5039507,73.1869576 C80.7763848,72.945573 80.9850506,72.8787999 81.3199176,73.1115041 C82.866048,74.1681879 84.3023368,75.3727741 85.8053986,76.4855473 C86.1239061,76.7212562 85.9793424,76.8958678 85.8407883,77.1072046 C85.0268246,78.3174665 84.0609521,79.4008595 83.0710414,80.4622175 C81.7756438,81.8464233 80.4538709,83.195907 78.9357851,84.3487441 C78.5698687,84.6231814 78.3495176,84.6388731 78.0266698,84.2389024 C76.2525093,82.0487457 74.4442945,79.8846304 72.633075,77.7265248 C72.367652,77.4096866 72.3265866,77.2434216 72.6748082,76.937601 C74.1364707,75.6652401 75.4882915,74.2780296 76.7983791,72.8507552 C76.915232,72.7218832 77.0117191,72.5405943 77.1789856,72.5138851"
           id="path3372" />
      </g>
      <g
         id="g3374"
         transform="translate(47.742745, 34.721997)"
         fill="#4E4F50">
        <g
           id="g3376">
          <polygon
             points="8.74627062 8.08388176 8.74627062 0.376600117 9.76389221 0.376600117 9.76389221 7.16775524 13.5599413 7.16775524 13.5599413 8.08388176"
             id="polygon3378" />
          <path
             d="M14.2189915,4.32656109 C14.2189915,3.05086158 14.5658776,2.04793007 15.2503015,1.32544545 C15.9377303,0.60262696 16.8228073,0.240383053 17.9102068,0.240383053 C18.6233432,0.240383053 19.2626953,0.410988248 19.8336051,0.750195445 C20.4071858,1.09107197 20.8415446,1.56415917 21.1393525,2.17179411 C21.440499,2.77876132 21.5900707,3.46819327 21.5900707,4.23741904 C21.5900707,5.01766237 21.4318185,5.71677642 21.1179851,6.33375959 C20.8011469,6.95107662 20.3537673,7.41715265 19.7775157,7.73365701 C19.1985932,8.05049523 18.5735972,8.20941513 17.9078697,8.20941513 C17.1800433,8.20941513 16.5326784,8.0324665 15.9627702,7.68391107 C15.3875202,7.33402018 14.9571678,6.85659273 14.6647017,6.25062712 C14.3668938,5.64332604 14.2189915,5.00397389 14.2189915,4.32656109 Z M15.2726705,4.34625915 C15.2726705,5.27240163 15.5250727,6.00289902 16.0211966,6.53641586 C16.5209931,7.07026655 17.1473245,7.33635724 17.8985215,7.33635724 C18.6650764,7.33635724 19.3004221,7.06759563 19.7962122,6.52840309 C20.2910006,5.99021214 20.5400642,5.22432502 20.5400642,4.23541585 C20.5400642,3.60908445 20.4328934,3.06187914 20.2202212,2.59480151 C20.0105537,2.12805775 19.6987235,1.76648158 19.2904062,1.50873752 C18.8824227,1.25232893 18.4260288,1.12345691 17.9155486,1.12345691 C17.1960688,1.12345691 16.5744115,1.37085113 16.0515784,1.86697505 C15.5310823,2.36142963 15.2726705,3.18741251 15.2726705,4.34625915 Z"
             id="path3380" />
          <path
             d="M22.6086939,8.08388176 L22.6086939,0.376600117 L25.4956276,0.376600117 C26.0828967,0.376600117 26.5549823,0.456393936 26.9085458,0.609304267 C27.2631108,0.766554848 27.5405529,1.0059363 27.7442107,1.3287841 C27.9421929,1.65229963 28.046025,1.99050523 28.046025,2.34239931 C28.046025,2.67125668 27.9565491,2.980416 27.773257,3.27054499 C27.5946391,3.55967238 27.3232065,3.79504745 26.9606287,3.97299769 C27.4303773,4.11021635 27.7929551,4.3429205 28.046025,4.67344719 C28.296424,5.00397389 28.4219574,5.39392862 28.4219574,5.84264366 C28.4219574,6.20588916 28.34617,6.54242543 28.1932596,6.85158475 C28.0416848,7.16475045 27.8543863,7.40246258 27.6296949,7.57173231 C27.4043358,7.74100205 27.123555,7.86787088 26.7856833,7.95400814 C26.4474777,8.04148086 26.0354879,8.08454949 25.5453735,8.08454949 L22.6086939,8.08454949 L22.6086939,8.08388176 Z M23.6306557,3.60441034 L25.2872956,3.60441034 C25.7363445,3.60441034 26.0615294,3.57636565 26.2568406,3.51593602 C26.5145846,3.43814539 26.7082265,3.31261202 26.8377663,3.13399406 C26.9689754,2.95804702 27.03675,2.73569269 27.03675,2.46693108 C27.03675,2.21219182 26.974985,1.9898375 26.8527902,1.79586173 C26.7302617,1.60255369 26.5549823,1.46934141 26.32762,1.39922969 C26.1029287,1.32911797 25.7149771,1.29205891 25.1620961,1.29205891 L23.6306557,1.29205891 L23.6306557,3.60441034 Z M23.6306557,7.1680891 L25.5477106,7.1680891 C25.8795727,7.1680891 26.1092721,7.15606995 26.2411489,7.13136391 C26.4785272,7.08996461 26.6718352,7.01985289 26.8317567,6.92102874 C26.9890073,6.82420779 27.1185471,6.68064569 27.2197083,6.49368109 C27.319534,6.30638263 27.371617,6.08937015 27.371617,5.84297752 C27.371617,5.55718878 27.2978328,5.3074575 27.1439208,5.095453 C26.9910105,4.8834485 26.7860172,4.73487842 26.5249345,4.64907502 C26.2641856,4.5626039 25.8899226,4.52053686 25.4021453,4.52053686 L23.6303219,4.52053686 L23.6303219,7.1680891 L23.6306557,7.1680891 Z"
             id="path3382" />
          <path
             d="M28.7468084,8.08388176 L31.7031861,0.376600117 L32.809282,0.376600117 L35.9589677,8.08388176 L34.7991195,8.08388176 L33.9070313,5.74815976 L30.6698728,5.74815976 L29.8278644,8.08388176 L28.7468084,8.08388176 Z M30.9593341,4.91883823 L33.5868544,4.91883823 L32.7789002,2.78109838 C32.5301705,2.13406733 32.3488817,1.59821344 32.2270208,1.17487217 C32.1271951,1.67700566 31.9886409,2.17246184 31.8120262,2.66090685 L30.9593341,4.91883823 Z"
             id="path3384" />
          <polygon
             points="36.4741219 8.08388176 36.4741219 0.376600117 37.4940806 0.376600117 37.4940806 7.16775524 41.2864571 7.16775524 41.2864571 8.08388176"
             id="polygon3386" />
          <path
             d="M0.325184853,16.0969841 L1.29139118,16.0135177 C1.336463,16.3991322 1.44196445,16.7143011 1.60656007,16.9613615 C1.77249115,17.2097573 2.03090293,17.408741 2.37778904,17.5606498 C2.72801379,17.7135601 3.11930398,17.7890137 3.555666,17.7890137 C3.93660636,17.7890137 4.28082154,17.7332582 4.57696011,17.6157376 C4.87243094,17.5008879 5.09278208,17.341968 5.2400167,17.1419826 C5.38291107,16.9396602 5.45535985,16.7203107 5.45535985,16.481597 C5.45535985,16.2422155 5.38591585,16.0308787 5.24569241,15.8525946 C5.10847375,15.6716396 4.88010985,15.5220679 4.5616023,15.4002071 C4.35660897,15.3187439 3.90088277,15.1948799 3.19742847,15.025944 C2.49130325,14.855005 1.99718253,14.6954173 1.71439858,14.5441763 C1.34581123,14.3495328 1.07104005,14.1108191 0.890085028,13.8240288 C0.710465469,13.53824 0.619654093,13.2180631 0.619654093,12.8634981 C0.619654093,12.474545 0.729829659,12.1096302 0.949846926,11.7707568 C1.17053192,11.4318835 1.4907088,11.1751411 1.91304847,10.9998617 C2.33538814,10.8239147 2.80713988,10.7371097 3.32429731,10.7371097 C3.89487319,10.7371097 4.39800828,10.828255 4.83036391,11.0118809 C5.26572433,11.1965084 5.60025741,11.4676071 5.83396316,11.824843 C6.06800277,12.182079 6.19620706,12.5863899 6.21156487,13.0387774 L5.23500872,13.1125617 C5.18225799,12.6311279 5.00731255,12.2668808 4.70249348,12.0204881 C4.40335012,11.7740955 3.95830761,11.6505653 3.36903526,11.6505653 C2.75338756,11.6505653 2.30901277,11.7647473 2.02823201,11.9897725 C1.74745125,12.2147978 1.60656007,12.4852287 1.60656007,12.804404 C1.60656007,13.0808445 1.70605195,13.3075391 1.90570343,13.4868247 C2.10034693,13.6644411 2.60848999,13.8473993 3.43447287,14.0343639 C4.25678323,14.2199931 4.82635752,14.3845887 5.12883953,14.5244783 C5.58055935,14.7298055 5.90941673,14.9922236 6.12075349,15.3093957 C6.33776597,15.6252323 6.44093037,15.9884778 6.44093037,16.4004677 C6.44093037,16.8117898 6.32574682,17.1964027 6.09204107,17.5569773 C5.85699987,17.9208905 5.52113132,18.2016712 5.08109679,18.4033259 C4.64339931,18.6043129 4.15161565,18.7054741 3.60040395,18.7054741 C2.90729948,18.7054741 2.32503831,18.6016419 1.8529527,18.400655 C1.38387188,18.1979987 1.01495067,17.8908426 0.746856792,17.4828591 C0.479430645,17.0728725 0.338873332,16.6118044 0.325184853,16.0969841 Z"
             id="path3388" />
          <polygon
             points="7.63583446 18.5769359 7.63583446 10.8729929 8.65679471 10.8729929 8.65679471 14.0263512 12.6511598 14.0263512 12.6511598 10.8729929 13.6717862 10.8729929 13.6717862 18.5769359 12.6511598 18.5769359 12.6511598 14.9404745 8.65679471 14.9404745 8.65679471 18.5769359"
             id="polygon3390" />
          <path
             d="M14.2827597,18.5769359 L17.2408068,10.8729929 L18.3469027,10.8729929 L21.4949191,18.5769359 L20.3357386,18.5769359 L19.4413133,16.2445526 L16.2058242,16.2445526 L15.3638158,18.5769359 L14.2827597,18.5769359 Z M16.4949516,15.4135617 L19.1211364,15.4135617 L18.3165209,13.2751541 C18.0661219,12.6281231 17.8821621,12.0946062 17.7646415,11.6715988 C17.6651496,12.1727307 17.5242584,12.6671853 17.3489791,13.1556303 L16.4949516,15.4135617 Z"
             id="path3392" />
          <path
             d="M22.0514726,18.5769359 L22.0514726,10.8729929 L24.9567689,10.8729929 C25.4682506,10.8729929 25.8562022,10.8970312 26.1286363,10.9467772 C26.5052364,11.0095438 26.823744,11.1297354 27.0771478,11.3056824 C27.3342241,11.4832988 27.5388835,11.7313607 27.6961341,12.0492005 C27.8517154,12.3687097 27.9308415,12.7196022 27.9308415,13.1005425 C27.9308415,13.7545848 27.7218418,14.3101367 27.3038423,14.7641936 C26.8875122,15.2182505 26.1353136,15.444945 25.0479141,15.444945 L23.0734345,15.444945 L23.0734345,18.576602 L22.0514726,18.576602 L22.0514726,18.5769359 Z M23.0734345,14.530154 L25.0612688,14.530154 C25.7173142,14.530154 26.1850595,14.4099624 26.4635032,14.1652391 C26.7406115,13.9188465 26.8778301,13.5763007 26.8778301,13.1325936 C26.8778301,12.8104135 26.7953654,12.5376456 26.6324391,12.3082801 C26.469179,12.0799162 26.2568406,11.9286752 25.9910838,11.8558925 C25.8171399,11.8094852 25.501971,11.7864485 25.0382321,11.7864485 L23.0731006,11.7864485 L23.0731006,14.530154 L23.0734345,14.530154 Z"
             id="path3394" />
          <polygon
             points="29.0045524 18.5769359 29.0045524 10.8729929 34.5764313 10.8729929 34.5764313 11.7864485 30.0245111 11.7864485 30.0245111 14.1318526 34.2809605 14.1318526 34.2809605 15.0459759 30.0245111 15.0459759 30.0245111 17.6634803 34.7560508 17.6634803 34.7560508 18.5769359"
             id="polygon3396" />
          <path
             d="M43.1073588,16.0969841 L44.0738989,16.0135177 C44.1176353,16.3991322 44.2268093,16.7143011 44.3897356,16.9613615 C44.5549989,17.2097573 44.8120752,17.408741 45.1609645,17.5606498 C45.50952,17.7135601 45.9038149,17.7890137 46.3355028,17.7890137 C46.7234544,17.7890137 47.0660002,17.7332582 47.3584663,17.6157376 C47.6556064,17.5008879 47.8762914,17.341968 48.0195197,17.1419826 C48.1647511,16.9396602 48.2385353,16.7203107 48.2385353,16.481597 C48.2385353,16.2422155 48.1670882,16.0308787 48.0295356,15.8525946 C47.892317,15.6716396 47.6646208,15.5220679 47.3431085,15.4002071 C47.1394506,15.3187439 46.6820551,15.1948799 45.9789346,15.025944 C45.2741449,14.855005 44.7823612,14.6954173 44.4969064,14.5441763 C44.1296545,14.3495328 43.8542155,14.1108191 43.674596,13.8240288 C43.4919716,13.53824 43.4038312,13.2180631 43.4038312,12.8634981 C43.4038312,12.474545 43.5116697,12.1096302 43.7310192,11.7707568 C43.9517042,11.4318835 44.2728827,11.1751411 44.6942208,10.9998617 C45.1198991,10.8239147 45.5899815,10.7371097 46.1064712,10.7371097 C46.677381,10.7371097 47.1785129,10.828255 47.6112024,11.0118809 C48.0492337,11.1965084 48.3837668,11.4676071 48.6168048,11.824843 C48.8508444,12.182079 48.9773794,12.5863899 48.9924033,13.0387774 L48.0148456,13.1125617 C47.9650996,12.6311279 47.788151,12.2668808 47.485669,12.0204881 C47.1865256,11.7740955 46.7411492,11.6505653 46.149206,11.6505653 C45.5362292,11.6505653 45.0898512,11.7647473 44.8100721,11.9897725 C44.5306268,12.2147978 44.3890678,12.4852287 44.3890678,12.804404 C44.3890678,13.0808445 44.4888936,13.3075391 44.6882112,13.4868247 C44.8808515,13.6644411 45.3923332,13.8473993 46.2146436,14.0343639 C47.0409603,14.2199931 47.6048589,14.3845887 47.9133505,14.5244783 C48.3613978,14.7298055 48.6899213,14.9922236 48.9045967,15.3093957 C49.119606,15.6252323 49.2247736,15.9884778 49.2247736,16.4004677 C49.2247736,16.8117898 49.1079207,17.1964027 48.874215,17.5569773 C48.6401754,17.9208905 48.3019698,18.2016712 47.86494,18.4033259 C47.4259071,18.6043129 46.9334557,18.7054741 46.3842472,18.7054741 C45.6888057,18.7054741 45.1042074,18.6016419 44.6364621,18.400655 C44.1663797,18.1979987 43.7974584,17.8908426 43.5290307,17.4828591 C43.2626061,17.0728725 43.1220488,16.6118044 43.1073588,16.0969841 Z"
             id="path3398" />
          <path
             d="M6.15814641,26.3683516 L7.18077599,26.6250941 C6.96443124,27.4630961 6.58148768,28.0997773 6.02426641,28.5401457 C5.46904833,28.9801803 4.79263712,29.1995298 3.98835549,29.1995298 C3.15803236,29.1995298 2.48295662,29.0302601 1.96312827,28.6930561 C1.44196445,28.3565198 1.04533242,27.8654039 0.773899885,27.2220453 C0.502133489,26.5843625 0.365916426,25.8942628 0.365916426,25.1577559 C0.365916426,24.3581483 0.519828353,23.6560295 0.826316746,23.0587444 C1.13280514,22.4594561 1.57050261,22.0070685 2.1333996,21.6972415 C2.6989675,21.3864128 3.32296185,21.2328348 4.0037133,21.2328348 C4.7726052,21.2328348 5.41896852,21.4284799 5.94514032,21.8197701 C6.46797346,22.2127296 6.83622694,22.7656106 7.04155413,23.4764099 L6.03227918,23.7134543 C5.85165802,23.1535621 5.5955833,22.7442432 5.25771156,22.4875008 C4.91783663,22.2324276 4.49182444,22.1028879 3.97800567,22.1028879 C3.38806559,22.1028879 2.89127395,22.2437791 2.49631124,22.5285662 C2.10034693,22.8153565 1.81990003,23.1956292 1.66031239,23.672055 C1.49771997,24.1521534 1.41792615,24.6459403 1.41792615,25.1530817 C1.41792615,25.809461 1.51307777,26.3790353 1.70438262,26.8688158 C1.89501974,27.359264 2.19182603,27.7231772 2.59546924,27.9645619 C2.99978019,28.2066142 3.4361422,28.3264719 3.90555688,28.3264719 C4.47379571,28.3264719 4.95923593,28.1632117 5.35386478,27.8323512 C5.75149841,27.5028261 6.01825683,27.0157165 6.15814641,26.3683516 Z"
             id="path3400" />
          <path
             d="M7.88389642,25.3183451 C7.88389642,24.0413101 8.2261084,23.0410495 8.91387103,22.3145585 C9.59996432,21.59174 10.4867107,21.2331686 11.5717731,21.2331686 C12.2825724,21.2331686 12.9272664,21.4021045 13.4965068,21.7409778 C14.0684182,22.0795173 14.5021093,22.5549416 14.8032558,23.1599056 C15.1020653,23.7678744 15.2506354,24.4603111 15.2506354,25.2285353 C15.2506354,26.0091125 15.0947203,26.7058895 14.7788837,27.3252097 C14.465718,27.9408574 14.0186723,28.4065996 13.439082,28.7251071 C12.8614949,29.0429469 12.2361651,29.1988621 11.5660974,29.1988621 C10.8432789,29.1988621 10.1945785,29.0239166 9.62266717,28.6726903 C9.05175742,28.3241348 8.61873406,27.8470413 8.32426482,27.2390725 C8.02946171,26.6367794 7.88389642,25.9940886 7.88389642,25.3183451 Z M8.93323522,25.3363738 C8.93323522,26.2645195 9.18263263,26.9933476 9.68176134,27.5268644 C10.1815578,28.0623844 10.810894,28.3274735 11.5627587,28.3274735 C12.3296474,28.3274735 12.9619884,28.0590458 13.4567769,27.5205209 C13.9518992,26.9813284 14.1992934,26.2167767 14.1992934,25.2258644 C14.1992934,24.5998668 14.0954613,24.0533293 13.8844584,23.58525 C13.6714523,23.1208433 13.3616252,22.7559285 12.9529741,22.5001877 C12.5429874,22.2444468 12.0869273,22.1155748 11.5777827,22.1155748 C10.8569674,22.1155748 10.2353101,22.3619674 9.71614947,22.8584252 C9.19465179,23.3535475 8.93323522,24.1785288 8.93323522,25.3363738 Z"
             id="path3402" />
          <path
             d="M16.2715956,29.0736626 L16.2715956,21.368718 L17.8050392,21.368718 L19.6389616,26.8240778 C19.8062281,27.3332225 19.9294244,27.713829 20.0082167,27.9652296 C20.0963571,27.6844488 20.2335758,27.2741283 20.4205404,26.7289262 L22.2808381,21.3683841 L23.6500199,21.3683841 L23.6500199,29.0733287 L22.6627801,29.0733287 L22.6627801,22.6287258 L20.4111921,29.0733287 L19.4933963,29.0733287 L17.2571662,22.5135423 L17.2571662,29.0733287 L16.2715956,29.0733287 L16.2715956,29.0736626 Z"
             id="path3404" />
          <path
             d="M24.9918248,29.0736626 L24.9918248,21.368718 L26.5252683,21.368718 L28.3571875,26.8240778 C28.5264572,27.3332225 28.6499874,27.713829 28.7271103,27.9652296 C28.8175878,27.6844488 28.9538049,27.2741283 29.1407695,26.7289262 L30.9997318,21.3683841 L32.3699152,21.3683841 L32.3699152,29.0733287 L31.381006,29.0733287 L31.381006,22.6287258 L29.1310874,29.0733287 L28.2132915,29.0733287 L25.9790646,22.5135423 L25.9790646,29.0733287 L24.9918248,29.0733287 L24.9918248,29.0736626 Z"
             id="path3406" />
          <path
             d="M38.807173,21.3683841 L39.8274655,21.3683841 L39.8274655,25.8181415 C39.8274655,26.5913737 39.739659,27.2060198 39.5643796,27.6604105 C39.3887665,28.1141335 39.0759346,28.487395 38.6168698,28.7691774 C38.1584726,29.0579709 37.5638585,29.1995298 36.8163339,29.1995298 C36.0961864,29.1995298 35.5062463,29.0759996 35.0478492,28.8272699 C34.592123,28.5768709 34.262264,28.2203027 34.0669528,27.7495526 C33.8716415,27.277467 33.7718158,26.6347762 33.7718158,25.8184754 L33.7718158,21.368718 L34.7911067,21.368718 L34.7911067,25.8104626 C34.7911067,26.4758563 34.8532057,26.9676399 34.9767358,27.2844781 C35.1039385,27.6019841 35.3169446,27.8480429 35.6180912,28.018648 C35.9199055,28.1902548 36.2928331,28.2753905 36.726858,28.2753905 C37.4753841,28.2753905 38.0105703,28.1041176 38.3300794,27.7642427 C38.6482531,27.4270386 38.807173,26.7746657 38.807173,25.8104626 L38.807173,21.3683841 L38.807173,21.3683841 Z"
             id="path3408" />
          <polygon
             points="41.2684284 29.0736626 41.2684284 21.368718 42.3130931 21.368718 46.3672201 27.4196936 46.3672201 21.368718 47.3434423 21.368718 47.3434423 29.0736626 46.2974422 29.0736626 42.2456523 23.0230208 42.2456523 29.0736626"
             id="polygon3410" />
          <polygon
             points="48.9830551 29.0736626 48.9830551 21.368718 50.0020121 21.368718 50.0020121 29.0736626"
             id="polygon3412" />
          <polygon
             points="53.510937 29.0736626 53.510937 22.2831752 50.9702217 22.2831752 50.9702217 21.368718 57.0782883 21.368718 57.0782883 22.2831752 54.5318972 22.2831752 54.5318972 29.0736626"
             id="polygon3414" />
          <path
             d="M60.0463512,29.0736626 L60.0463512,25.8104626 L57.0719448,21.368718 L58.2948936,21.368718 L59.8183212,23.7037722 C60.1007713,24.1364617 60.3661942,24.5741592 60.6105837,25.0138599 C60.8509667,24.6002007 61.1360878,24.1401343 61.4619403,23.6343283 L62.9589926,21.368718 L64.1465516,21.368718 L61.0666438,25.8104626 L61.0666438,29.0736626 L60.0463512,29.0736626 Z"
             id="path3416" />
        </g>
        <path
           d="M5.88671388,0.694439932 C6.64158344,1.0840608 7.10498855,1.76681544 7.27659534,2.74370546 L6.2372725,2.74370546 C6.11173913,2.19850334 5.856666,1.79853265 5.46537581,1.55047069 C5.07875973,1.30040555 4.58697607,1.17887856 3.9940312,1.17887856 C3.29491716,1.17887856 2.7009707,1.43361782 2.22354324,1.95745256 C1.74244327,2.4726068 1.50439727,3.24517122 1.50439727,4.27180718 C1.50439727,5.15855355 1.69837304,5.88070431 2.10001306,6.4395949 C2.49430804,6.9984855 3.13966977,7.27659534 4.03309345,7.27659534 C4.72018834,7.27659534 5.2890949,7.07894705 5.73981313,6.68932619 C6.18385405,6.2960328 6.41889525,5.66335796 6.42857735,4.79030007 L4.00337943,4.79030007 L4.00337943,3.95129644 L7.40045939,3.95129644 L7.40045939,7.94566151 L6.7287223,7.94566151 L6.47465077,6.98513089 C6.1264292,7.36206487 5.81693602,7.62147825 5.54650509,7.76737741 C5.09244821,8.01710869 4.52120459,8.14497912 3.82042122,8.14497912 C2.91397679,8.14497912 2.14041077,7.85852265 1.49137653,7.28394038 C0.783581981,6.56713147 0.427681516,5.57989162 0.427681516,4.32823042 C0.427681516,3.07656922 0.773232155,2.08265206 1.46700436,1.34414191 C2.12739002,0.639686014 2.97507415,0.288125799 4.0190711,0.288125799 C4.74022026,0.288125799 5.35954049,0.424676727 5.88671388,0.694439932"
           id="path3418" />
        <path
           d="M35.9462808,10.8860137 L39.6194674,10.8860137 C40.2227621,10.8860137 40.7208892,10.9708155 41.1148503,11.1417545 C41.862041,11.4656039 42.2302945,12.0672293 42.2302945,12.945629 C42.2302945,13.4013552 42.1341413,13.7766199 41.9331543,14.066415 C41.7341706,14.3548747 41.4517205,14.5892481 41.093483,14.7671984 C41.4109889,14.8880576 41.6490349,15.0479791 41.8092903,15.2426226 C41.9692118,15.4419402 42.0546813,15.762451 42.0733778,16.2068258 L42.1141093,17.2297892 C42.1227898,17.5202521 42.147162,17.7372645 42.1898968,17.8778219 C42.256336,18.1208758 42.3708518,18.2761232 42.5394538,18.3425624 L42.5394538,18.5175079 L41.2009876,18.5175079 C41.1615915,18.4524041 41.1315436,18.3682701 41.1105101,18.2610993 C41.090812,18.1586026 41.071114,17.9586173 41.0574255,17.661811 L40.9869799,16.3894501 C40.9616061,15.8879844 40.7743077,15.5564561 40.4160702,15.3841815 C40.2137478,15.2923686 39.9002482,15.2422888 39.4625507,15.2422888 L37.0373528,15.2422888 L37.0373528,18.5175079 L35.9462808,18.5175079 L35.9462808,10.8860137 Z M39.4999436,14.3842548 C39.9977369,14.3842548 40.3947028,14.2854307 40.6871688,14.0914549 C40.9759624,13.8968114 41.1188567,13.548256 41.1188567,13.0414484 C41.1188567,12.4989172 40.9178698,12.127325 40.5062138,11.9306783 C40.2892013,11.8278478 40.0040803,11.775431 39.6391655,11.775431 L37.0370189,11.775431 L37.0370189,14.3842548 L39.4999436,14.3842548 L39.4999436,14.3842548 Z"
           id="path3420" />
      </g>
    </g>
  </g>
  <path
     style="fill:#ffffff;fill-opacity:1"
     d="m 51.49233,44.39688 c -0.80371,-0.03058 -1.579278,-0.339439 -2.128004,-0.847463 -0.164331,-0.152141 -0.408837,-0.471086 -0.551693,-0.719651 -0.491555,-0.855292 -0.651421,-2.150892 -0.413611,-3.352017 0.103063,-0.52055 0.340743,-1.082996 0.63209,-1.495778 0.173165,-0.24534 0.552928,-0.627242 0.795628,-0.800107 0.646442,-0.460433 1.457365,-0.66661 2.366223,-0.601611 1.585547,0.113394 2.549695,0.842298 2.86813,2.168329 0.06874,0.286242 0.11884,0.258013 -0.457933,0.258013 l -0.50135,0 -0.04809,-0.165513 c -0.06242,-0.214835 -0.221964,-0.529783 -0.350783,-0.692477 -0.544563,-0.687765 -1.961849,-0.92819 -2.879535,-0.488476 -0.527881,0.252936 -0.971609,0.716566 -1.191626,1.24507 -0.383422,0.921022 -0.379157,2.356601 0.0097,3.26511 0.177838,0.415493 0.467717,0.794124 0.759977,0.992658 0.69329,0.470957 1.91359,0.526171 2.717478,0.122956 0.73661,-0.36947 1.093893,-0.99116 1.166709,-2.03013 l 0.01454,-0.207532 -1.213223,0 -1.213223,0 0,-0.403846 0,-0.403846 1.682692,0 1.682693,0 0,1.985577 0,1.985577 -0.324456,0 -0.324456,0 -0.02206,-0.08413 c -0.01213,-0.04627 -0.06805,-0.257718 -0.124262,-0.469876 -0.05621,-0.212158 -0.102202,-0.392243 -0.102202,-0.400188 0,-0.0079 -0.116397,0.09608 -0.258659,0.231158 -0.496968,0.471886 -0.865331,0.680697 -1.433802,0.812766 -0.301337,0.07001 -0.782308,0.109682 -1.156898,0.09543 z"
     id="path3426"
     inkscape:connector-curvature="0" />
  <path
     style="fill:#ffffff;fill-opacity:1"
     d="m 56.607714,40.498582 0,-3.847757 0.504808,0 0.504808,0 0,3.399039 0,3.399038 1.895833,0 1.895833,0 0,0.448718 0,0.448718 -2.400641,0 -2.400641,0 0,-3.847756 z"
     id="path3428"
     inkscape:connector-curvature="0" />
  <path
     style="fill:#ffffff;fill-opacity:1"
     d="m 65.154186,44.424191 c -0.979924,-0.152769 -1.857862,-0.696614 -2.37221,-1.469484 -0.49225,-0.739665 -0.726165,-1.611683 -0.691945,-2.579523 0.02746,-0.776713 0.16688,-1.383704 0.445217,-1.938365 0.195775,-0.390132 0.397837,-0.662439 0.72019,-0.970554 0.585287,-0.559434 1.279883,-0.85555 2.186411,-0.932096 1.498538,-0.126535 2.859548,0.588606 3.502558,1.840413 0.370541,0.721367 0.536351,1.581894 0.474697,2.4636 -0.05046,0.721655 -0.194106,1.250941 -0.494193,1.820963 -0.503973,0.957306 -1.434053,1.590884 -2.59147,1.765328 -0.276585,0.04169 -0.911021,0.04154 -1.179255,-2.82e-4 l 0,0 z m 1.282107,-0.89169 c 0.452649,-0.119218 0.767895,-0.295843 1.101541,-0.61717 0.517186,-0.49809 0.781725,-1.140415 0.851549,-2.067646 0.0853,-1.132717 -0.235802,-2.177491 -0.849403,-2.763722 -0.314521,-0.300491 -0.680329,-0.506678 -1.09912,-0.619516 -0.201449,-0.05428 -0.256009,-0.0592 -0.668082,-0.06033 -0.393509,-0.0011 -0.47312,0.005 -0.647049,0.04908 -0.403208,0.10227 -0.730773,0.266363 -1.062532,0.532273 -0.565912,0.453586 -0.840399,1.085329 -0.929107,2.138376 -0.0469,0.556778 3.61e-4,1.149982 0.126439,1.586939 0.283214,0.981552 1.027464,1.68191 1.977272,1.860664 0.126589,0.02382 0.289386,0.03095 0.579849,0.02537 0.343698,-0.0066 0.435838,-0.01618 0.618643,-0.06432 z"
     id="path3430"
     inkscape:connector-curvature="0" />
  <path
     style="fill:#ffffff;fill-opacity:1"
     d=""
     id="path3432"
     inkscape:connector-curvature="0" />
  <path
     style="fill:#ffffff;fill-opacity:1"
     d="m 54.85272,38.141323 c -0.01716,-0.03531 -0.01535,-0.04594 0.0021,-0.01239 0.0077,0.01489 0.01326,0.02956 0.01224,0.0326 -0.001,0.003 -0.0075,-0.0061 -0.01435,-0.02021 z"
     id="path3434"
     inkscape:connector-curvature="0" />
  <path
     style="fill:#ffffff;fill-opacity:1"
     d=""
     id="path3436"
     inkscape:connector-curvature="0" />
  <path
     style="fill:#ffffff;fill-opacity:1"
     d="m 70.457504,40.484595 0,-3.830375 1.907052,0.03553 c 1.568088,0.02921 1.970855,0.06355 2.266025,0.193174 1.364222,0.59911 1.625798,2.27918 0.483667,3.106535 l -0.364022,0.263696 0.342799,0.14323 c 1.014878,0.424043 1.407111,1.603239 0.895553,2.692357 -0.251201,0.534811 -0.412584,0.689548 -1.002301,0.961018 -0.414899,0.190994 -0.58542,0.207115 -2.487106,0.235132 l -2.041667,0.03008 0,-3.830374 z m 4.118825,2.783632 c 0.472361,-0.278231 0.658296,-0.587971 0.658296,-1.096627 0,-1.088811 -0.496427,-1.379224 -2.466223,-1.442758 l -1.323718,-0.0427 0,1.411104 0,1.411104 1.413461,-0.03032 c 1.217663,-0.02612 1.455673,-0.05518 1.718184,-0.209808 z m -0.257777,-3.567308 c 0.685097,-0.34664 0.818405,-1.184741 0.283642,-1.783245 -0.214093,-0.239612 -0.329077,-0.282494 -0.962979,-0.35913 -0.39592,-0.04786 -1.041561,-0.07507 -1.434758,-0.06047 l -0.714901,0.02656 -0.02504,1.189103 -0.02504,1.189102 1.239999,0 c 1.107851,0 1.28253,-0.02152 1.639079,-0.201923 z"
     id="path3438"
     inkscape:connector-curvature="0" />
  <path
     style="fill:#ffffff;fill-opacity:1"
     d="m 76.784031,43.96825 c 0.07501,-0.187577 0.733048,-1.895856 1.462314,-3.796177 l 1.325939,-3.455128 0.535559,-0.02361 0.535559,-0.02362 1.542212,3.792846 1.542211,3.792845 -0.497899,0.02722 c -0.273845,0.01497 -0.51519,0.0099 -0.536321,-0.0112 -0.02113,-0.02113 -0.230908,-0.538188 -0.46617,-1.149013 l -0.427749,-1.110592 -1.655065,-0.02327 -1.655065,-0.02327 -0.408885,1.145059 -0.408884,1.14506 -0.512066,0.02695 -0.512065,0.02695 0.136375,-0.34105 z m 4.669785,-2.876305 c -0.323145,-0.827187 -1.042338,-2.767133 -1.164726,-3.141722 -0.172947,-0.529336 -0.269045,-0.541363 -0.360904,-0.04517 -0.03437,0.185642 -0.301445,0.981318 -0.593507,1.76817 -0.292061,0.786852 -0.531021,1.463294 -0.531021,1.503205 0,0.03991 0.61009,0.07256 1.355756,0.07256 1.254739,0 1.351184,-0.0117 1.294402,-0.157051 z"
     id="path3440"
     inkscape:connector-curvature="0" />
  <path
     style="fill:#ffffff;fill-opacity:1"
     d="m 84.367761,40.486176 0,-3.814103 0.447638,0 0.447639,0 0.02352,3.387821 0.02352,3.38782 1.907052,0.02422 1.907051,0.02422 0,0.402062 0,0.402061 -2.378205,0 -2.378205,0 0,-3.814102 z"
     id="path3442"
     inkscape:connector-curvature="0" />
  <path
     style="fill:#ffffff;fill-opacity:1"
     d="m 50.130581,54.764486 c -1.045775,-0.330735 -1.707638,-1.050368 -1.878003,-2.041922 l -0.05631,-0.327715 0.441919,-0.03126 0.44192,-0.03126 0.147238,0.467434 c 0.253918,0.806108 1.072981,1.282566 2.204816,1.282566 1.081563,0 1.884314,-0.538481 1.884314,-1.263989 0,-0.81983 -0.375214,-1.082414 -2.242354,-1.569253 -1.3124,-0.342197 -1.849354,-0.600094 -2.186497,-1.050169 -0.275505,-0.36779 -0.345495,-0.602289 -0.341303,-1.143527 0.0058,-0.745562 0.38671,-1.299385 1.18041,-1.716139 0.359354,-0.188689 0.522493,-0.212051 1.480769,-0.212051 0.957776,0 1.121604,0.02343 1.480769,0.211797 0.708453,0.371547 1.126503,0.880335 1.293752,1.574562 0.07588,0.314959 -0.03895,0.409056 -0.501535,0.410985 -0.296409,0.0012 -0.339826,-0.02967 -0.431392,-0.307121 -0.240313,-0.728158 -0.847431,-1.122076 -1.734546,-1.125431 -1.187031,-0.0045 -1.857048,0.426939 -1.857048,1.195768 0,0.683993 0.285349,0.866015 2.059963,1.314036 2.066709,0.521764 2.697629,1.062211 2.695605,2.30906 -0.0015,0.942222 -0.654633,1.746645 -1.664948,2.050705 -0.523225,0.157468 -1.923524,0.159162 -2.417543,0.0029 z"
     id="path3444"
     inkscape:connector-curvature="0" />
  <path
     style="fill:#ffffff;fill-opacity:1"
     d="m 55.560068,50.986176 0,-3.814103 0.448718,0 0.448718,0 0,1.570513 0,1.570513 2.064103,0 2.064102,0 0,-1.570513 0,-1.570513 0.448718,0 0.448718,0 0,3.814103 0,3.814102 -0.448718,0 -0.448718,0 0,-1.794872 0,-1.794871 -2.064102,0 -2.064103,0 0,1.794871 0,1.794872 -0.448718,0 -0.448718,0 0,-3.814102 z"
     id="path3446"
     inkscape:connector-curvature="0" />
  <path
     style="fill:#ffffff;fill-opacity:1"
     d="m 62.362792,54.378515 c 0.09042,-0.236941 0.747279,-1.956609 1.459685,-3.821485 l 1.295284,-3.390683 0.53296,0.0253 0.532961,0.0253 1.507023,3.679487 c 0.828862,2.023718 1.527439,3.731881 1.552392,3.795918 0.0348,0.08929 -0.08188,0.110211 -0.500607,0.08974 l -0.545977,-0.02669 -0.428068,-1.121794 -0.428067,-1.121795 -1.659457,-0.02437 -1.659457,-0.02437 -0.403232,1.146164 -0.403233,1.146164 -0.508304,0.02696 -0.508304,0.02696 0.164401,-0.430801 z m 4.594684,-2.741698 c -1.6e-5,-0.0617 -0.282708,-0.868146 -0.628205,-1.792105 -0.345498,-0.923959 -0.628177,-1.721555 -0.628177,-1.772436 0,-0.05088 -0.031,-0.09251 -0.06889,-0.09251 -0.03789,0 -0.137684,0.262287 -0.221764,0.582861 -0.08408,0.320573 -0.355963,1.1215 -0.604185,1.779837 -0.248222,0.658338 -0.451313,1.244127 -0.451313,1.301755 0,0.07506 0.369112,0.104778 1.301282,0.104778 0.981212,0 1.301275,-0.02759 1.301254,-0.112179 z"
     id="path3448"
     inkscape:connector-curvature="0" />
  <path
     style="fill:#ffffff;fill-opacity:1"
     d="m 69.919043,50.977779 0,-3.8225 2.086538,0.03083 c 2.067949,0.03056 2.091037,0.03304 2.591388,0.27876 0.549334,0.269774 0.889927,0.684123 1.057013,1.28591 0.297398,1.071132 -0.208805,2.240206 -1.158016,2.674434 -0.347888,0.159146 -0.62457,0.189368 -1.996795,0.218108 l -1.592949,0.03336 0,1.561795 0,1.561796 -0.49359,0 -0.493589,0 0,-3.822499 z m 4.135942,-0.33424 c 0.64002,-0.313117 0.896781,-1.230607 0.539265,-1.926964 -0.299947,-0.584227 -0.555979,-0.666948 -2.220559,-0.717439 l -1.467469,-0.04451 0,1.457871 0,1.457872 1.413462,-0.03469 c 1.113551,-0.02733 1.48175,-0.06809 1.735301,-0.19214 z"
     id="path3450"
     inkscape:connector-curvature="0" />
  <path
     style="fill:#ffffff;fill-opacity:1"
     d="m 76.919043,50.986176 0,-3.814103 2.737179,0 2.73718,0 0,0.402305 0,0.402305 -2.266026,0.02398 -2.266026,0.02398 -0.02504,1.189103 -0.02504,1.189102 2.156451,0 2.156451,0 0,0.448718 0,0.448718 -2.153846,0 -2.153846,0 0,1.346154 0,1.346154 2.378205,0 2.378205,0 0,0.403846 0,0.403846 -2.826923,0 -2.826923,0 0,-3.814102 z"
     id="path3452"
     inkscape:connector-curvature="0" />
  <path
     style="fill:#ffffff;fill-opacity:1"
     d="m 83.829299,50.941304 0,-3.769231 1.96211,0 c 1.079161,0 2.17823,0.04099 2.442377,0.09108 1.18593,0.224907 1.714153,0.759554 1.772615,1.794169 0.04422,0.782674 -0.178476,1.322304 -0.692522,1.678058 -0.199311,0.137937 -0.363916,0.271899 -0.365789,0.297694 -0.0019,0.0258 0.135812,0.121874 0.305969,0.213509 0.45839,0.24686 0.587968,0.613525 0.671393,1.899835 0.06446,0.993913 0.09681,1.149404 0.279655,1.344029 l 0.206761,0.220087 -0.684654,0 -0.684654,0 -0.04449,-0.291667 c -0.02447,-0.160417 -0.06908,-0.713527 -0.09913,-1.229135 -0.09378,-1.608925 -0.159517,-1.655345 -2.399769,-1.694524 l -1.682692,-0.02943 0,1.622377 0,1.622377 -0.49359,0 -0.49359,0 0,-3.769231 z M 88.43167,50.4689 c 0.400548,-0.262792 0.554894,-0.583952 0.554894,-1.15461 0,-0.383117 -0.04836,-0.583017 -0.186062,-0.76905 -0.350542,-0.473585 -0.56041,-0.520603 -2.323767,-0.520603 l -1.615385,0 -0.02488,1.330743 -0.02487,1.330742 1.689394,-0.02946 c 1.430011,-0.02494 1.726439,-0.05377 1.930676,-0.187762 z"
     id="path3454"
     inkscape:connector-curvature="0" />
  <path
     style="fill:#ffffff;fill-opacity:1"
     d="M 92.88175,54.749585 C 91.924119,54.454721 91.190301,53.6617 91.048051,52.767946 l -0.05922,-0.372076 0.446203,-0.03177 0.446203,-0.03177 0.100539,0.376356 c 0.240889,0.901735 1.144865,1.42074 2.356852,1.353155 0.800694,-0.04465 1.285826,-0.257897 1.583619,-0.696101 0.295743,-0.43519 0.269826,-0.904955 -0.07137,-1.293551 -0.290397,-0.330744 -0.598202,-0.452743 -2.271291,-0.900228 -0.486378,-0.130087 -1.035394,-0.313592 -1.220036,-0.407789 -0.618464,-0.315517 -1.079309,-1.027035 -1.081037,-1.66906 -0.002,-0.76003 0.717985,-1.630153 1.554536,-1.878582 0.579099,-0.171974 1.694757,-0.172177 2.273145,-4.15e-4 0.916825,0.272268 1.578507,0.969898 1.593288,1.679847 l 0.008,0.385086 -0.426282,0.02735 c -0.398051,0.02554 -0.426282,0.01305 -0.426282,-0.188651 0,-0.300858 -0.344766,-0.781112 -0.718253,-1.000516 -0.257045,-0.151 -0.467993,-0.184339 -1.166362,-0.184339 -1.004348,0 -1.355462,0.151194 -1.644399,0.708101 -0.166297,0.320527 -0.17069,0.378994 -0.05362,0.713705 0.169659,0.485087 0.414934,0.613861 1.926106,1.01124 0.688978,0.181175 1.434418,0.420917 1.656533,0.532761 0.968243,0.48755 1.355309,1.364358 1.06778,2.418808 -0.140862,0.516582 -0.883559,1.215346 -1.504368,1.415379 -0.592287,0.190844 -1.939182,0.198648 -2.536602,0.0147 z"
     id="path3456"
     inkscape:connector-curvature="0" />
  <path
     style="fill:#ffffff;fill-opacity:1"
     d="m 50.474519,65.228724 c -0.89983,-0.320318 -1.542049,-1.012165 -1.925317,-2.074096 -0.185115,-0.512903 -0.212767,-0.746603 -0.208033,-1.758196 0.0061,-1.305587 0.09679,-1.657655 0.626102,-2.43094 0.623039,-0.910208 1.607517,-1.383163 2.879121,-1.383163 0.981073,0 1.62428,0.23488 2.185596,0.798114 0.326483,0.327598 0.810132,1.103238 0.810132,1.299229 0,0.0378 -0.741199,0.235991 -0.882576,0.235991 -0.04683,0 -0.108567,-0.09332 -0.137192,-0.207367 -0.09292,-0.370233 -0.583992,-0.949677 -0.975824,-1.151438 -0.477681,-0.245965 -1.546919,-0.268546 -2.061965,-0.04355 -1.037772,0.453354 -1.520781,1.400308 -1.518851,2.977754 0.0025,2.029742 0.885862,3.11766 2.53151,3.11766 1.026221,0 1.81536,-0.590629 2.152,-1.610661 0.05452,-0.165192 0.118495,-0.30035 0.142168,-0.30035 0.02367,0 0.222466,0.04518 0.441759,0.100398 0.469115,0.118124 0.486383,0.201127 0.179133,0.861053 -0.272537,0.585367 -0.916467,1.237705 -1.467925,1.487092 -0.600214,0.271436 -2.112505,0.316462 -2.769838,0.08247 z"
     id="path3458"
     inkscape:connector-curvature="0" />
  <path
     style="fill:#ffffff;fill-opacity:1"
     d="m 58.189541,65.227832 c -1.690047,-0.601788 -2.607437,-2.289104 -2.355601,-4.332555 0.172998,-1.403741 0.848092,-2.430585 1.95683,-2.976415 0.56467,-0.277986 0.641013,-0.291661 1.628273,-0.291661 0.98726,0 1.063602,0.01367 1.628272,0.291661 1.432646,0.705289 2.222364,2.400861 1.964623,4.218168 -0.205893,1.451737 -0.879663,2.424252 -2.056484,2.968315 -0.680266,0.314498 -2.055625,0.375405 -2.765913,0.122487 z m 2.171809,-0.761696 c 0.545723,-0.153768 1.336807,-0.981058 1.516396,-1.585796 0.560737,-1.88821 -0.01664,-3.686553 -1.38178,-4.303783 -0.589072,-0.26634 -1.599557,-0.254839 -2.200599,0.02505 -0.885956,0.412564 -1.302116,1.032863 -1.485376,2.214002 -0.188334,1.213846 0.05007,2.239929 0.68436,2.945408 0.742042,0.825329 1.64886,1.048355 2.866999,0.705121 z"
     id="path3460"
     inkscape:connector-curvature="0" />
  <path
     style="fill:#ffffff;fill-opacity:1"
     d="m 64.175453,61.482546 0,-3.817732 0.732589,0.02607 0.732589,0.02607 1.084719,3.252498 c 0.596595,1.788873 1.104911,3.252425 1.12959,3.252337 0.02468,-8.9e-5 0.550772,-1.463713 1.169095,-3.252498 l 1.124222,-3.252337 0.648213,-0.02637 0.648214,-0.02637 0,3.818034 0,3.818034 -0.448718,0 -0.448718,0 0,-3.200855 c 0,-1.76047 -0.02634,-3.174515 -0.05853,-3.142322 -0.03219,0.03219 -0.548728,1.46248 -1.147857,3.178418 l -1.089325,3.119887 -0.445092,0.0249 -0.445092,0.0249 -1.066887,-3.165928 c -0.586789,-1.74126 -1.100464,-3.226504 -1.141502,-3.300542 -0.04104,-0.07404 -0.07584,1.349519 -0.07734,3.163461 l -0.0027,3.298077 -0.448718,0 -0.448718,0 0,-3.817732 z"
     id="path3462"
     inkscape:connector-curvature="0" />
  <path
     style="fill:#ffffff;fill-opacity:1"
     d="m 72.880581,61.486176 0,-3.814103 0.741332,0 0.741332,0 1.06445,3.208333 c 0.585447,1.764584 1.093163,3.239938 1.128258,3.278565 0.03509,0.03863 0.568959,-1.395027 1.186365,-3.185897 l 1.122557,-3.256129 0.642468,-0.02637 0.642469,-0.02637 0,3.818034 0,3.818034 -0.448718,0 -0.448718,0 -0.0073,-3.208333 c -0.0058,-2.545796 -0.02917,-3.159098 -0.113251,-2.96991 -0.05828,0.131133 -0.569903,1.576116 -1.136942,3.211075 l -1.030979,2.972651 -0.44013,-0.02518 -0.44013,-0.02518 -1.095944,-3.211287 c -0.602769,-1.766208 -1.121537,-3.236881 -1.152819,-3.268162 -0.03128,-0.03128 -0.05687,1.423894 -0.05687,3.233723 l 0,3.290598 -0.448718,0 -0.448718,0 0,-3.814102 z"
     id="path3464"
     inkscape:connector-curvature="0" />
  <path
     style="fill:#ffffff;fill-opacity:1"
     d="m 83.377833,65.252181 c -0.494739,-0.152512 -1.111677,-0.66335 -1.335444,-1.105776 -0.310317,-0.613551 -0.366936,-1.211656 -0.366936,-3.876185 l 0,-2.598147 0.440047,0 0.440047,0 0.03111,2.762161 c 0.03105,2.757133 0.03152,2.762973 0.260302,3.208333 0.341961,0.665695 0.800418,0.894891 1.790035,0.894891 1.211206,0 1.749759,-0.382841 1.967626,-1.398724 0.05578,-0.260072 0.09648,-1.508086 0.09648,-2.958258 l 0,-2.508403 0.453323,0 0.453322,0 -0.03172,2.894231 c -0.02242,2.045479 -0.06578,2.999502 -0.147863,3.253205 -0.172464,0.533069 -0.950458,1.254067 -1.543114,1.430067 -0.586306,0.174114 -1.946256,0.175527 -2.507206,0.0026 z"
     id="path3466"
     inkscape:connector-curvature="0" />
  <path
     style="fill:#ffffff;fill-opacity:1"
     d="m 89.124171,61.486176 0,-3.814103 0.516026,0.0033 0.516025,0.0033 2.019231,3.025576 2.019231,3.025577 0.02363,-3.028846 0.02363,-3.028846 0.447524,0 0.447524,0 0,3.814103 0,3.814102 -0.476424,0 -0.476424,0 -2.01396,-3.002589 c -1.107679,-1.651424 -2.044249,-3.004308 -2.081268,-3.00641 -0.03702,-0.0021 -0.06731,1.349063 -0.06731,3.002589 l 0,3.00641 -0.448718,0 -0.448718,0 0,-3.814102 z"
     id="path3468"
     inkscape:connector-curvature="0" />
  <path
     style="fill:#ffffff;fill-opacity:1"
     d="m 96.84212,61.486176 0,-3.814103 0.493589,0 0.49359,0 0,3.814103 0,3.814102 -0.49359,0 -0.493589,0 0,-3.814102 z"
     id="path3470"
     inkscape:connector-curvature="0" />
  <path
     style="fill:#ffffff;fill-opacity:1"
     d="m 101.41904,61.890022 0,-3.410257 -1.25641,0 -1.256408,0 0,-0.403846 0,-0.403846 3.006408,0 3.00641,0 0,0.401382 0,0.401382 -1.27884,0.0249 -1.27885,0.0249 -0.0235,3.387821 -0.0235,3.38782 -0.44764,0 -0.44764,0 0,-3.410256 z"
     id="path3472"
     inkscape:connector-curvature="0" />
  <path
     style="fill:#ffffff;fill-opacity:1"
     d="m 107.97032,63.707046 0,-1.593232 -1.48131,-2.22087 -1.48131,-2.220871 0.56144,0.001 0.56144,0.001 0.9092,1.412447 c 0.50006,0.776846 1.02085,1.592607 1.15732,1.812802 0.23689,0.38225 0.2539,0.392396 0.37607,0.224359 0.0704,-0.0968 0.60784,-0.913015 1.19437,-1.813816 l 1.06641,-1.637821 0.54873,0 0.54873,0 -0.48685,0.695513 c -0.26776,0.382532 -0.95708,1.374157 -1.53182,2.203611 l -1.04498,1.508098 0,1.610491 0,1.610492 -0.44872,0 -0.44872,0 0,-1.593232 z"
     id="path3474"
     inkscape:connector-curvature="0" />
</svg>
