<?xml version="1.0" encoding="UTF-8"?>
<!DOCTYPE svg PUBLIC "-//W3C//DTD SVG 1.1//EN" "http://www.w3.org/Graphics/SVG/1.1/DTD/svg11.dtd">
<!-- Creator: CorelDRAW X8 -->
<svg xmlns="http://www.w3.org/2000/svg" xml:space="preserve" width="70mm" height="70mm" version="1.1" style="shape-rendering:geometricPrecision; text-rendering:geometricPrecision; image-rendering:optimizeQuality; fill-rule:evenodd; clip-rule:evenodd"
viewBox="0 0 5300 6200"
 xmlns:xlink="http://www.w3.org/1999/xlink">
 <defs>
  <style type="text/css">
   <![CDATA[
    .fil0 {fill:#AD161B}
    .fil1 {fill:#D9DADA;fill-rule:nonzero}
   ]]>
  </style>
 </defs>
 <g id="Слой_x0020_1">
  <metadata id="CorelCorpID_0Corel-Layer"/>
  <g id="_2460990967616">
   <path class="fil0" d="M2216 2917c15,-94 -20,-163 -24,-253 87,227 107,385 192,588 48,115 -8,218 268,218 261,0 236,-100 304,-336 41,-145 104,-321 155,-470 -2,92 -39,153 -23,254 -38,62 -29,200 -14,281 19,100 4,169 -7,267l-199 1238 271 0c-4,293 -4,585 -7,878 -3,329 -71,555 328,550 384,-5 310,-247 314,-567 3,-287 8,-575 12,-862l109 1c0,280 10,563 14,844 5,321 -62,541 308,550 392,10 333,-205 329,-533 -4,-287 -10,-574 -12,-861l303 0 -260 -1290c-24,-172 34,-171 29,-326 -4,-94 -9,-254 -38,-325l-25 -137c55,95 144,403 182,522 31,99 86,185 52,256 -50,107 -56,194 -33,312 192,41 87,-96 138,-237l196 -32c105,292 31,2193 46,2686l150 -1c0,-279 17,-2406 -13,-2575 -16,-94 -47,-122 -70,-188 -20,-57 -17,-132 -43,-213l-384 -1182c-158,-477 -203,-382 -1183,-382 -150,0 -348,-25 -474,41 -124,65 -147,168 -196,320 -48,149 -204,703 -259,792 -156,-257 -219,-974 -444,-1106 -122,-72 -318,-47 -468,-47 -212,0 -845,-32 -992,39 -129,61 -149,162 -200,317 -147,446 -337,944 -427,1394 -44,218 -91,-65 -91,709 0,684 -21,1402 2,2081l149 1c1,-453 0,-906 0,-1359 0,-311 -39,-1094 44,-1326l138 24c6,0 10,1 15,1l43 7c55,141 -56,279 140,236 27,-156 5,-184 -34,-312 -29,-100 38,-201 67,-278 61,-162 109,-398 180,-553 -25,211 -85,315 -66,566 1,149 57,181 72,310 12,111 -1,277 -1,395 5,427 -10,863 -16,1291 -3,218 -3,436 -7,654 -6,255 98,327 364,307 270,-20 266,-128 271,-376 12,-632 9,-1348 37,-1960l71 3c22,90 31,1862 33,2113 3,270 278,284 452,244 252,-59 190,-289 188,-538 -3,-241 -3,-482 -5,-722l-15 -1411 4 -52c65,-66 82,-292 80,-378 -4,-61 7,-67 -20,-102zm-1300 -2341c-83,42 -114,27 -149,115 41,44 55,40 129,55 -103,912 1253,925 1146,-15 64,-38 99,-15 126,-86 -38,-43 -31,-34 -88,-48 -159,-41 -91,-2 -160,-269 -57,-222 -122,-229 -355,-187 -506,94 -578,-265 -649,435zm2863 -528c-147,30 -198,125 -224,243 -22,95 14,41 -71,102 -105,73 -211,213 -230,407 -35,368 267,672 637,639 335,-31 615,-364 503,-748 -71,-244 -242,-289 -271,-363 -14,-34 -54,-338 -344,-280z"/>
   <path class="fil1" d="M2575 5168l2 0 20 0c13,0 23,10 23,23l0 703c2,139 113,265 265,265 144,0 262,-120 276,-250 2,-13 2,-1663 2,-1663 0,0 6,-32 12,-43 0,0 503,-900 509,-912 38,-67 40,-153 -3,-225 -64,-106 -201,-140 -307,-77 -39,23 -68,59 -86,97l-280 505c-13,22 -28,31 -55,31l-376 0 -2 0 -376 0c-27,0 -42,-9 -55,-31l-280 -505c-18,-38 -47,-74 -86,-97 -106,-63 -244,-29 -307,77 -43,72 -41,158 -3,225 6,12 509,912 509,912 6,11 11,43 11,43 0,0 1,1650 3,1663 14,130 132,250 276,250 152,0 262,-126 265,-265l0 -703c0,-13 10,-23 23,-23l20 0z"/>
   <path class="fil1" d="M2356 2673c-146,77 -245,230 -245,407 0,253 206,459 459,459 254,0 460,-206 460,-459 0,-157 -79,-296 -199,-379l0 -269 -124 209c-13,-4 -27,-8 -41,-11l0 -198 -113 189c-18,0 -36,2 -54,5l0 -194 -143 241z"/>
  </g>
 </g>
</svg>
