<?xml version="1.0" encoding="UTF-8"?>
<!DOCTYPE svg PUBLIC "-//W3C//DTD SVG 1.1//EN" "http://www.w3.org/Graphics/SVG/1.1/DTD/svg11.dtd">
<!-- Creator: CorelDRAW X8 -->
<svg xmlns="http://www.w3.org/2000/svg" xml:space="preserve" width="70mm" height="70mm" version="1.1" style="shape-rendering:geometricPrecision; text-rendering:geometricPrecision; image-rendering:optimizeQuality; fill-rule:evenodd; clip-rule:evenodd"
viewBox="0 0 7000 7000"
 xmlns:xlink="http://www.w3.org/1999/xlink">
 <defs>
  <style type="text/css">
   <![CDATA[
    .fil0 {fill:#AD161B;fill-rule:nonzero}
    .fil1 {fill:#D9DADA;fill-rule:nonzero}
   ]]>
  </style>
 </defs>
 <g id="Слой_x0020_1">
  <metadata id="CorelCorpID_0Corel-Layer"/>
  <g id="_2460990982336">
   <path class="fil0" d="M949 3513c133,41 275,-34 317,-168l379 -1236c2,-5 13,-27 40,-27 2,0 53,0 53,0 16,0 24,13 20,27l-759 2484c-4,15 0,40 27,40l532 0c15,0 26,12 26,27 0,0 0,1810 0,1811 0,181 147,327 327,327 181,0 328,-146 328,-327l0 -1811c0,-15 12,-27 27,-27l0 0 53 0 0 0c15,0 28,12 28,27l0 1811c0,181 146,327 327,327 181,0 327,-146 327,-327 0,-1 0,-1811 0,-1811 0,-15 11,-27 26,-27l533 0c26,0 30,-25 26,-40l-759 -2484c-4,-14 5,-27 20,-27l0 0c0,0 51,0 53,0 27,0 38,22 41,27 0,0 502,1639 502,1639 41,134 183,209 317,168 47,-14 86,-41 117,-76 2,-2 4,-5 6,-7 0,0 0,0 0,0 36,-44 57,-100 57,-161 0,0 154,-1549 154,-1549 0,-15 12,-26 27,-26l53 0c15,0 27,11 27,26 0,0 0,4347 0,4347 0,181 146,328 327,328 181,0 327,-147 327,-328 0,0 0,-2558 0,-2558 0,-18 9,-26 27,-26l53 0c18,0 27,8 27,26 0,0 0,2558 0,2558 0,181 147,328 327,328 181,0 327,-147 327,-328 0,0 0,-4347 0,-4347 0,-15 12,-26 27,-26l54 0c14,0 26,11 26,26 0,0 0,1549 0,1549 0,141 114,254 254,254 140,0 254,-114 254,-254 0,0 0,-1742 0,-1763 0,-347 -267,-614 -601,-614 -9,0 -458,0 -668,0 0,0 -42,0 -107,0 -210,0 -659,0 -668,0 -334,0 -570,255 -601,614 0,7 -17,195 -39,446 -70,-231 -122,-400 -122,-400 -58,-202 -169,-661 -597,-661l-1070 0c-398,0 -539,459 -597,661 -2,4 -380,1241 -381,1241 -41,134 35,276 169,317zm3959 -3339c269,0 487,218 487,487 0,269 -218,487 -487,487 -269,0 -487,-218 -487,-487 0,-269 218,-487 487,-487zm-2638 0c269,0 487,218 487,487 0,269 -218,487 -487,487 -269,0 -486,-218 -486,-487 0,-269 217,-487 486,-487z"/>
   <g>
    <path class="fil1" d="M3588 3751c244,0 442,203 442,452 0,250 -198,452 -442,452 -244,0 -442,-202 -442,-452 0,-249 198,-452 442,-452z"/>
    <path class="fil1" d="M2642 5158l-428 362c-84,70 -95,195 -24,279 39,47 95,71 152,71 45,0 90,-16 127,-47l677 -570c-143,-169 -309,-245 -504,-95z"/>
    <path class="fil1" d="M2519 5903l1 1 -1 0 0 179c-149,52 -256,194 -256,360 0,212 172,383 383,383 211,0 383,-171 383,-383 0,-175 -119,-323 -281,-368l0 -99 229 -188c227,96 354,228 788,194 83,-7 155,-34 217,-77l258 292c-56,67 -90,153 -90,246 0,212 171,383 383,383 211,0 382,-171 382,-383 0,-211 -171,-382 -382,-382 -29,0 -56,3 -82,9l-304 -344c179,-291 208,-764 148,-1067 -2,-8 7,-20 13,-26 86,-87 162,-183 248,-269 53,-53 111,-100 178,-135 75,-39 134,-14 193,32 7,5 12,10 13,11 0,0 0,1 1,1 90,109 25,220 -64,303 -78,74 39,193 117,119 143,-133 199,-311 109,-475 -4,-8 -30,-53 -79,-95 -65,-50 -134,-88 -220,-86 -89,1 -174,50 -244,101 -156,115 -266,279 -407,411 -1,1 -3,3 -4,4 -3,3 -10,9 -16,15 0,0 -805,664 -1272,1052l-342 281z"/>
   </g>
  </g>
 </g>
</svg>
