<?xml version="1.0" encoding="UTF-8"?>
<!DOCTYPE svg PUBLIC "-//W3C//DTD SVG 1.1//EN" "http://www.w3.org/Graphics/SVG/1.1/DTD/svg11.dtd">
<!-- Creator: CorelDRAW X8 -->
<svg xmlns="http://www.w3.org/2000/svg" xml:space="preserve" width="70mm" height="70mm" version="1.1" style="shape-rendering:geometricPrecision; text-rendering:geometricPrecision; image-rendering:optimizeQuality; fill-rule:evenodd; clip-rule:evenodd"
viewBox="0 0 7000 7000"
 xmlns:xlink="http://www.w3.org/1999/xlink">
 <defs>
  <style type="text/css">
   <![CDATA[
    .fil1 {fill:#AD161B;fill-rule:nonzero}
    .fil0 {fill:#D9DADA;fill-rule:nonzero}
   ]]>
  </style>
 </defs>
 <g id="Слой_x0020_1">
  <metadata id="CorelCorpID_0Corel-Layer"/>
  <g id="_2425707295600">
   <path class="fil0" d="M5512 1396c0,0 -729,0 -737,0 -318,0 -572,254 -572,584 0,20 0,1676 0,1677 0,133 108,242 242,242 133,0 241,-108 241,-242 0,0 0,-1474 0,-1474 0,-14 11,-25 25,-25l51 0c14,0 26,11 26,25 0,0 0,4135 0,4136 0,172 139,311 311,311 172,0 311,-139 311,-311 0,-1 0,-2433 0,-2433 0,-18 8,-26 26,-26l50 0c18,0 26,8 26,26 0,0 0,2432 0,2433 0,172 139,311 311,311 172,0 311,-139 311,-311 0,-1 0,-4136 0,-4136 0,-14 11,-25 25,-25l51 0c14,0 26,11 26,25 0,0 0,1474 0,1474 0,134 108,242 241,242 134,0 242,-109 242,-242 0,-1 0,-1657 0,-1677 0,-330 -254,-584 -572,-584 -8,0 -435,0 -635,0zm-51 -1066c256,0 463,207 463,463 0,256 -207,463 -463,463 -256,0 -463,-207 -463,-463 0,-256 207,-463 463,-463z"/>
   <path class="fil0" d="M452 3546c127,39 262,-33 302,-160 0,0 360,-1176 360,-1176 3,-5 13,-26 38,-26 3,0 51,0 51,0l0 0c15,0 23,12 19,26l-722 2363c-4,14 0,38 25,38l507 0c14,0 25,11 25,26 0,0 0,1721 0,1722 0,172 139,311 311,311 172,0 311,-139 311,-311l0 -1722c0,-15 12,-26 26,-26l1 0 50 0 0 0c14,0 26,11 26,26l0 1722c0,172 139,311 311,311 172,0 312,-139 312,-311 0,-1 -1,-1722 -1,-1722 0,-15 11,-26 25,-26l507 0c25,0 29,-24 25,-38l-722 -2363c-4,-14 4,-26 19,-26l0 0c0,0 49,0 51,0 25,0 36,21 38,26 0,0 361,1176 361,1176 39,127 174,199 301,160 128,-40 199,-175 160,-302 0,-1 -361,-1181 -361,-1181 -56,-192 -161,-628 -568,-628l-1018 0c-379,0 -513,436 -568,628 -1,4 -362,1180 -362,1181 -39,127 33,262 160,302zm1279 -3177c256,0 463,207 463,463 0,256 -207,463 -463,463 -256,0 -464,-207 -464,-463 0,-256 208,-463 464,-463z"/>
   <path class="fil1" d="M4222 1764c264,-47 467,-341 467,-694 0,-387 -242,-700 -542,-700 -299,0 -542,313 -542,700 0,354 204,647 469,693 14,3 22,11 18,19l-7 15 -52 97c-6,13 0,23 14,23l9 0c14,0 22,11 19,24 -11,44 -14,91 -7,141 9,67 50,129 78,189 40,84 51,161 28,251 -20,80 -46,156 -57,238 -10,82 118,81 128,0 10,-76 39,-148 57,-222 18,-74 17,-148 -1,-222 -18,-71 -57,-134 -88,-199 -29,-62 -25,-120 -5,-176 4,-14 20,-24 34,-24l8 0c14,0 20,-10 13,-23l-51 -97c0,0 -4,-7 -8,-15 -4,-7 4,-15 18,-18zm-683 931c242,0 438,196 438,438 0,242 -196,438 -438,438 -242,0 -438,-196 -438,-438 0,-242 196,-438 438,-438zm-1194 1854c-70,75 -66,193 10,263 35,33 81,50 126,50 50,0 100,-20 137,-59l407 -455 0 532 -54 1540c-4,120 89,221 209,225 3,0 5,0 8,0 116,0 213,-92 217,-210l41 -1154 169 0 153 1175c14,109 107,189 215,189 9,0 18,-1 28,-2 119,-15 203,-124 187,-243l-215 -1639 -6 -666 477 -217c52,-24 91,-70 105,-126l194 -751c26,-102 -35,-206 -137,-232 -101,-26 -205,35 -232,137l-171 663 -387 177 -677 0c-10,0 -20,1 -29,4 -38,7 -73,25 -101,55l-674 744z"/>
  </g>
 </g>
</svg>
