<?xml version="1.0" encoding="UTF-8"?>
<!DOCTYPE svg PUBLIC "-//W3C//DTD SVG 1.1//EN" "http://www.w3.org/Graphics/SVG/1.1/DTD/svg11.dtd">
<!-- Creator: CorelDRAW X8 -->
<svg xmlns="http://www.w3.org/2000/svg" xml:space="preserve" width="70mm" height="70mm" version="1.1" style="shape-rendering:geometricPrecision; text-rendering:geometricPrecision; image-rendering:optimizeQuality; fill-rule:evenodd; clip-rule:evenodd"
viewBox="0 0 7000 7000"
 xmlns:xlink="http://www.w3.org/1999/xlink">
 <defs>
  <style type="text/css">
   <![CDATA[
    .fil1 {fill:#AD161B;fill-rule:nonzero}
    .fil0 {fill:#D9DADA;fill-rule:nonzero}
   ]]>
  </style>
 </defs>
 <g id="Слой_x0020_1">
  <metadata id="CorelCorpID_0Corel-Layer"/>
  <g id="_2460990972224">
   <path class="fil0" d="M4597 1458c224,0 406,181 406,406 0,224 -182,406 -406,406 -225,0 -407,-182 -407,-406 0,-225 182,-406 407,-406zm60 -1234c198,0 359,161 359,359 0,198 -161,359 -359,359 -199,0 -359,-161 -359,-359 0,-198 160,-359 359,-359zm337 6552c137,0 252,-126 253,-249l0 -3765 441 -364c31,-25 54,-58 70,-94l360 -862c52,-124 -6,-266 -130,-318 -98,-41 -207,-13 -274,61 -18,20 -34,43 -45,69l-45 108 -515 -291c-24,-13 -52,-21 -80,-21l0 0 -771 0c-29,0 -57,8 -82,23l-509 298 -49 -117c-5,-12 -11,-23 -18,-34 -62,-100 -189,-143 -300,-96 -124,52 -183,194 -131,318l361 862c15,36 39,69 69,94l505 417c1,4 2,3709 2,3709 0,123 111,252 247,252 127,0 230,-109 246,-223 2,-15 2,-2023 2,-2023 0,-16 12,-28 27,-28l96 0c16,0 28,12 28,28l0 1998c1,123 106,248 242,248zm-677 -4417l0 0 -361 -299 -162 -387 508 -298 685 0 511 289 -167 396 -360 299 -654 0z"/>
   <path class="fil0" d="M1240 2349c142,0 257,115 257,256 0,142 -115,257 -257,257 -141,0 -256,-115 -256,-257 0,-141 115,-256 256,-256z"/>
   <path class="fil0" d="M2785 3770l-43 -209 -101 -485c0,0 -47,-222 -246,-222 -242,0 -366,0 -404,0 -38,0 -86,-120 -118,-120 -32,0 -325,0 -444,0 -119,0 -157,34 -157,34l-18 15 -336 271c0,0 -13,12 -26,36 -15,25 -29,63 -29,116 0,103 0,216 0,320 0,422 342,477 342,477 0,0 18,0 50,0 1,3 1,6 0,9l-242 935c-3,12 5,22 17,22l298 0c12,0 22,10 22,22l0 1533c0,12 0,22 0,23 -1,1 -1,1 -1,2 0,121 99,219 220,219 120,0 214,-99 214,-220 0,-15 0,-30 0,-45l0 -1525c0,-12 10,-21 22,-21l78 3c12,1 22,11 22,23l0 1541c0,12 0,22 0,23 0,1 0,4 0,6 1,2 1,3 1,4 0,121 90,211 211,211 121,0 223,-98 223,-219 0,-16 -2,-31 -2,-46l0 -1510c0,-12 10,-23 22,-23l227 -8c12,-1 20,-11 18,-23l-168 -936c23,0 43,0 61,0 346,0 287,-233 287,-233z"/>
   <path class="fil0" d="M2166 1792c224,0 406,182 406,407 0,224 -182,406 -406,406 -225,0 -407,-182 -407,-406 0,-225 182,-407 407,-407z"/>
   <path class="fil1" d="M4170 6728c100,0 199,-86 199,-188 0,-1 0,-1101 0,-1101 1,-17 15,-34 30,-40 136,-52 139,-234 134,-307 -1,-16 -14,-23 -29,-14l-170 103c-14,9 -40,16 -57,16 -175,0 -1050,0 -1098,0 -35,0 -41,-47 -41,-79 0,-17 2,-44 2,-61l0 -610c0,-17 -4,-14 -19,-7 -178,84 -799,425 -970,519 -140,81 -107,299 143,299l351 0c17,0 42,8 47,24 0,0 -13,1261 -13,1266 0,102 80,184 179,184 98,0 177,-82 177,-184 0,-6 -2,-550 -2,-550 0,-17 14,-39 31,-39l576 0c17,0 23,11 14,25 -57,91 -204,352 -271,456 -52,69 -46,166 16,228 68,68 181,71 246,0 4,-4 199,-303 303,-518 8,-15 13,-13 13,3 1,144 2,304 6,388 0,1 0,1 0,2 0,102 102,185 203,185z"/>
  </g>
 </g>
</svg>
