<?xml version="1.0" encoding="UTF-8"?>
<!DOCTYPE svg PUBLIC "-//W3C//DTD SVG 1.1//EN" "http://www.w3.org/Graphics/SVG/1.1/DTD/svg11.dtd">
<!-- Creator: CorelDRAW X8 -->
<svg xmlns="http://www.w3.org/2000/svg" xml:space="preserve" width="84.6666mm" height="22.7752mm" version="1.1" style="shape-rendering:geometricPrecision; text-rendering:geometricPrecision; image-rendering:optimizeQuality; fill-rule:evenodd; clip-rule:evenodd"
viewBox="0 0 8467 2278"
 xmlns:xlink="http://www.w3.org/1999/xlink">
 <defs>
  <style type="text/css">
   <![CDATA[
    .fil1 {fill:#E31E24}
    .fil2 {fill:#FEFEFE}
    .fil0 {fill:#FEFEFE;fill-rule:nonzero}
   ]]>
  </style>
 </defs>
 <g id="Слой_x0020_1">
  <metadata id="CorelCorpID_0Corel-Layer"/>
  <g id="_2460837932304">
   <path class="fil0" d="M7496 1989c0,60 33,90 91,90l92 0c61,0 91,-30 91,-90l0 -389 142 0 256 417c23,43 56,62 105,62l116 0c74,0 97,-45 61,-107l-323 -495 0 -4 273 -383c41,-59 17,-108 -56,-108l-103 0c-50,0 -82,17 -108,60l-228 327 -135 0 0 -727c0,-58 -30,-90 -91,-90l-92 0c-58,0 -91,32 -91,90l0 1347z"/>
   <path class="fil0" d="M6643 1406c26,-146 125,-243 265,-243 125,0 217,90 221,243l-486 0zm-286 125c0,312 226,574 590,574 172,0 301,-64 372,-109 47,-28 56,-71 30,-121l-26 -43c-28,-50 -67,-56 -120,-30 -52,32 -136,71 -237,71 -166,0 -312,-103 -329,-301l669 0c54,0 95,-46 95,-93 0,-301 -175,-523 -487,-523 -329,0 -557,237 -557,575z"/>
   <path class="fil0" d="M5753 1989c0,60 30,90 88,90l95 0c58,0 88,-30 88,-90l0 -353c0,-200 97,-398 297,-398 58,0 93,-32 93,-90l0 -84c0,-61 -22,-91 -82,-91 -155,0 -275,147 -318,278l-5 0c0,0 7,-34 7,-75l0 -104c0,-58 -33,-90 -91,-90l-84 0c-58,0 -88,32 -88,90l0 917z"/>
   <path class="fil0" d="M2806 1989c0,60 32,90 90,90l93 0c60,0 90,-30 90,-90l0 -420c0,-208 125,-363 316,-363 138,0 173,90 173,224l0 559c0,60 30,90 90,90l93 0c58,0 90,-30 90,-90l0 -615c0,-291 -140,-418 -383,-418 -189,0 -327,116 -381,222l-4 0c0,0 6,-39 6,-93l0 -443c0,-58 -30,-90 -90,-90l-93 0c-58,0 -90,32 -90,90l0 1347z"/>
   <path class="fil0" d="M1735 2006c0,48 32,73 91,73l789 0c61,0 91,-30 91,-90l0 -52c0,-58 -30,-90 -91,-90l-409 0c-71,0 -103,7 -103,7l0 -5c0,0 45,-39 95,-101l454 -570c28,-35 39,-56 39,-101l0 -22c0,-47 -33,-73 -91,-73l-753 0c-60,0 -90,32 -90,90l0 52c0,58 30,90 90,90l372 0c71,0 102,-4 102,-4l0 4c0,0 -41,39 -93,101l-454 569c-28,34 -39,56 -39,101l0 21z"/>
   <path class="fil0" d="M1370 1989c0,60 31,90 89,90l94 0c58,0 89,-30 89,-90l0 -917c0,-58 -31,-90 -89,-90l-94 0c-58,0 -89,32 -89,90l0 917zm89 -1194l94 0c58,0 91,-30 91,-89l0 -64c0,-58 -33,-90 -91,-90l-94 0c-58,0 -89,32 -89,90l0 64c0,59 31,89 89,89z"/>
   <path class="fil0" d="M455 1462l137 -409c26,-86 61,-237 61,-237l4 0c0,0 34,151 60,237l136 409 -398 0zm-448 514c-21,63 7,103 73,103l99 0c52,0 86,-23 101,-75l106 -316 536 0 107 318c15,50 50,73 101,73l99 0c67,0 95,-40 74,-103l-478 -1351c-15,-50 -50,-73 -101,-73l-138 0c-52,0 -84,23 -101,73l-478 1351z"/>
   <path class="fil1" d="M4668 1400c17,-66 45,-99 105,-132 85,-47 204,-24 270,59 21,26 38,63 47,95 23,77 13,113 90,93l43 -8c27,-3 63,-4 96,2 -4,27 -5,57 -18,84 -7,17 -8,29 -29,72 -32,66 -48,78 -96,116 -17,13 -34,19 -55,29 -8,3 -11,4 -19,7 -8,3 -11,5 -20,7l-81 22c-4,1 -250,42 -259,39 -9,-2 -64,-258 -69,-287 -3,-20 -7,-42 -8,-62 -3,-36 -9,-93 3,-136z"/>
   <path class="fil1" d="M5493 1685c-9,47 -18,93 -30,138 -24,42 -61,69 -98,93 -39,26 -84,48 -128,63 -10,4 -18,6 -28,10l-85 26c-11,4 -18,6 -29,8 -81,16 -113,28 -208,42l-30 5c-41,7 -82,11 -125,16l-63 6c-22,2 -42,6 -65,5 1,-11 -18,-74 -21,-85 -9,-30 -17,-56 -26,-86l-53 -194c-11,-53 -22,-106 -29,-160 -18,-147 -4,-265 96,-379 47,-53 119,-108 189,-128 45,-12 83,-20 133,-18 139,5 271,79 351,187 18,25 35,53 46,81 8,20 16,37 20,58 3,14 12,52 10,66 -63,-16 -141,5 -149,3 -5,-1 -6,-15 -7,-20 -2,-6 -4,-13 -6,-20 -8,-26 -19,-54 -33,-77 -6,-11 -13,-25 -21,-35 -103,-132 -285,-154 -407,-57 -20,16 -25,20 -43,40 -54,61 -63,124 -64,201 -1,54 8,107 18,159 2,13 3,21 6,33l73 302 206 -32c19,-3 32,-5 51,-7l128 -28c52,-15 55,-16 104,-39 29,-14 47,-25 73,-47 32,-28 60,-67 80,-105 24,-49 35,-74 51,-131 5,-19 3,-25 8,-43 26,9 74,62 84,85 11,26 18,45 21,64z"/>
   <path class="fil2" d="M4405 1385c13,-271 -128,-715 -120,-961 6,-184 101,-203 175,-31 107,251 103,705 214,619 104,-80 -76,-997 94,-1012 124,-10 149,586 159,842 3,65 80,106 100,24 47,-185 34,-533 109,-662 35,-59 139,-70 157,6 46,203 -57,586 -40,781 4,54 59,99 90,25 24,-55 49,-171 69,-322 10,-76 45,-301 133,-249 148,88 -7,719 -15,868 -4,78 -9,159 -19,241 -38,-48 -47,-58 -109,-91 -16,-8 -9,-22 -14,-59 -18,-136 -101,-254 -212,-333 -6,-4 -8,-6 -15,-11 -43,-26 -89,-47 -137,-62l-37 -10c-85,-19 -174,-17 -257,13 -9,3 -13,5 -22,8 -9,3 -13,6 -21,9 -8,3 -12,6 -20,11 -22,13 -8,0 -29,16 -4,3 -6,4 -10,6 -9,5 -13,7 -20,13 -6,5 -11,8 -18,14l-52 46c-25,25 -40,47 -61,75 -40,54 -62,118 -72,186z"/>
   <path class="fil2" d="M3945 1382c-17,-29 -23,-65 -13,-100 18,-71 90,-113 161,-94 115,31 177,241 305,263 0,-3 1,-6 1,-9 -2,42 0,85 5,126 2,17 3,32 6,49l91 368c4,15 9,29 13,45 5,17 22,75 30,112 -144,-115 -187,-274 -264,-365 -75,-87 -273,-260 -335,-395z"/>
   <path class="fil2" d="M5411 1972c-95,213 -268,352 -588,291 -101,-19 -178,-52 -239,-92 27,-2 60,-6 76,-7l270 -34c8,-1 10,-1 17,-3 32,-6 79,-13 103,-20l51 -13c7,-2 11,-2 18,-4l50 -14c71,-24 121,-37 187,-73 12,-7 25,-9 45,-24l10 -7z"/>
  </g>
 </g>
</svg>
